<?xml version="1.0" encoding="utf-8"?>
<!-- Generator: Adobe Illustrator 25.1.0, SVG Export Plug-In . SVG Version: 6.00 Build 0)  -->
<svg version="1.1" id="Layer_1" xmlns="http://www.w3.org/2000/svg" xmlns:xlink="http://www.w3.org/1999/xlink" x="0px" y="0px"
	 viewBox="0 0 100 100" style="enable-background:new 0 0 100 100;" xml:space="preserve">
<style type="text/css">
	.st0{fill:#F37878;}
	.st1{display:none;}
	.st2{display:inline;fill:#AAAAAA;}
	.st3{fill:#FFFFFF;}
</style>
<rect x="-0.1" class="st0" width="100" height="100"/>
<g id="_x32_px_Stroke" class="st1">
	<path class="st2" d="M97.7,2.3V99H1.1V2.3H97.7 M98.7,1.3H0.1V100h98.6V1.3L98.7,1.3z"/>
</g>
<g>
	<path class="st3" d="M77.3,52.9c0-1.7-0.4-3.4-1.1-5c-0.5-1.2-1.1-2.4-1.6-3.7c-4.4-9.6-9-19-13.8-28.4c-0.7-1.3-1.3-2.6-2.1-3.9
		c-0.7-1.3-1.5-2.5-2.6-3.4c-1.7-1.6-4-2.6-6.3-2.7h-1.1c-2.4,0.1-4.7,1.1-6.5,2.8c-1,1-1.8,2.1-2.5,3.4c-0.7,1.3-1.4,2.6-2,3.8
		c-3.2,6.3-6.4,12.6-9.4,19c-1.8,3.8-3.6,7.6-5.3,11.5c-0.7,1.6-1.4,3.3-1.6,5c-0.5,3,0.2,6.1,1.8,8.6c1.4,2.2,3.4,4,5.8,5
		c1.9,0.8,3.9,1.2,5.9,1c2.7-0.1,5.3-1.1,7.6-2.5c2.6-1.6,4.7-3.7,6.8-5.8c1.9,2,3.9,4,6.2,5.5c2.3,1.5,4.8,2.6,7.5,2.8
		c2.9,0.3,6-0.4,8.4-2.1c2.2-1.4,3.9-3.5,4.8-5.9C77,56.3,77.3,54.6,77.3,52.9z M49.4,51.8c-0.7-0.9-1.4-1.8-2-2.7
		c-1.1-1.6-2.1-3.3-2.9-5.1c-0.7-1.5-1.2-3-1.4-4.6c-0.2-1.3-0.1-2.6,0.4-3.8c0.4-1.1,1.2-2.1,2.2-2.8c2.4-1.6,5.9-1.4,8.1,0.5
		c1.1,1,1.8,2.4,1.9,3.8c0.2,1.9-0.2,3.8-0.9,5.6C53.5,46,51.5,49,49.4,51.8z M73.2,55.8C72.6,58.1,71,60,69,61.2c-1.8,1-4,1.4-6,1
		c-2.6-0.4-4.9-1.8-7-3.4c-1.5-1.2-2.8-2.6-4.1-4c2-2.6,3.9-5.2,5.4-8.2c1.3-2.6,2.2-5.3,2.3-8.2c0.1-1.8-0.3-3.7-1.1-5.3
		c-1.1-2.2-3.1-3.8-5.4-4.7c-2.1-0.8-4.5-0.8-6.7-0.2c-2.1,0.6-4,1.8-5.2,3.5c-1.1,1.5-1.8,3.3-1.9,5.2c-0.2,2.7,0.4,5.4,1.5,7.9
		c1.5,3.6,3.7,6.9,6.2,9.9c-1.1,1.3-2.3,2.5-3.6,3.6c-2,1.7-4.3,3.2-6.9,3.7c-2.1,0.5-4.4,0.2-6.3-0.7c-2.2-1.1-4-3.2-4.6-5.7
		c-0.5-1.8-0.4-3.7,0.2-5.5c0.5-1.4,1.2-2.8,1.8-4.2c4.3-9.5,8.9-18.8,13.7-28.1c0.7-1.4,1.4-2.8,2.2-4.1c0.6-1.1,1.3-2.2,2.3-2.9
		c1.1-0.8,2.5-1.3,3.8-1.3c1.4,0,2.8,0.5,3.9,1.4c1.1,0.9,1.8,2.1,2.4,3.3c1.5,2.8,2.9,5.6,4.3,8.4c4,8,7.9,16.1,11.6,24.2
		c0.6,1.3,1.2,2.5,1.5,3.9C73.7,52.4,73.7,54.2,73.2,55.8z"/>
	<path class="st3" d="M28.3,73.3c1.2-0.3,2.5,0.5,2.9,1.7c0.4,1.2-0.4,2.7-1.6,3c-1.2,0.4-2.7-0.3-3.1-1.5c-0.4-1,0-2.3,0.9-2.9
		C27.7,73.5,28,73.4,28.3,73.3L28.3,73.3z"/>
	<path class="st3" d="M36.5,81.3c0.7-0.8,1.8-1.3,2.8-1.5c0.7-0.1,1.4,0,2.1,0.1c0,1.1,0,2.2,0,3.4c-1.1-0.3-2.3-0.3-3.3,0.1
		c-0.6,0.2-1.1,0.6-1.5,1c-0.1,0.1-0.1,0.2-0.1,0.3c0,3.1,0,6.3,0,9.4c0,0.1,0,0.3,0,0.4c-1.2,0-2.4,0-3.6,0c0-4.8,0-9.5,0-14.3
		c1,0,2,0,3.1,0c0.2,0,0.5,0.1,0.5,0.3C36.5,80.8,36.5,81,36.5,81.3L36.5,81.3z"/>
	<path class="st3" d="M62.6,81.3c1-1,2.4-1.5,3.7-1.5c1.5,0,2.9,0.4,4.1,1.3c0.7,0.6,1.3,1.4,1.5,2.3c0.3,1.1,0.3,2.3,0.3,3.4
		c0,2.5,0,5.1,0,7.6c-1.2,0-2.4,0-3.7,0c0-2.5,0-5.1,0-7.6c0-0.9,0-2-0.5-2.8c-0.3-0.6-1-0.9-1.7-1c-1.3-0.2-2.6,0.3-3.5,1.2
		c-0.1,0.1-0.2,0.2-0.2,0.4c0,0.4,0,0.8,0,1.2c0,0.5,0,1.1,0,1.6c0,1,0,2,0,3c-0.1,1.3,0.1,2.7,0,4c-1.2,0-2.4,0-3.6,0
		c0-4.8,0-9.5,0-14.3c0.9,0,1.9,0,2.8,0c0.2,0,0.5,0.1,0.6,0.4C62.6,80.8,62.6,81.1,62.6,81.3L62.6,81.3z"/>
	<path class="st3" d="M27,94.5c0-4.8,0-9.5,0-14.3c1.2,0,2.4,0,3.6,0c0,4.8,0,9.5,0,14.3C29.4,94.5,28.2,94.5,27,94.5L27,94.5z"/>
	<path class="st3" d="M24.7,80.2c-1,0-1.9,0-2.9,0c-0.3,0-0.6,0-0.7,0.3c-0.1,0.3-0.1,0.6-0.1,0.9c-0.8-0.8-1.9-1.4-3.1-1.5
		c-1.8-0.2-3.6,0.3-5.1,1.4c-1.2,0.9-2,2.1-2.5,3.5c-0.2,0.6-0.3,1.3-0.4,2v1c0.1,2.1,1,4.1,2.6,5.4c1.2,1,2.7,1.6,4.3,1.7h0.8
		c1.2-0.1,2.5-0.6,3.3-1.5c0,0.3,0,0.6,0.1,0.9c0.1,0.2,0.4,0.3,0.6,0.3c1,0,2,0,3,0C24.7,89.7,24.7,84.9,24.7,80.2z M20.9,90
		c-0.7,0.9-1.9,1.4-3,1.4c-1.2,0-2.5-0.5-3.3-1.4c-0.8-0.9-1-2.2-0.8-3.4c0.1-1,0.6-1.9,1.4-2.5c0.7-0.5,1.6-0.8,2.5-0.9
		c1.3-0.1,2.7,0.5,3.5,1.5c0,1.6,0,3.1,0,4.7C21.1,89.6,21.1,89.9,20.9,90z"/>
	<path class="st3" d="M57,84.3c-0.6-1.4-1.6-2.6-2.8-3.4c-1.3-0.8-2.9-1.2-4.4-1.1c-1.2,0.1-2.4,0.6-3.2,1.5c0-2.7,0-5.3,0-8
		c-1.2,0-2.4,0-3.7,0c0,7.1,0,14.1,0,21.2c1,0,2,0,3,0c0.3,0,0.5-0.1,0.6-0.4c0-0.3,0-0.5,0-0.8c0.8,0.9,2.1,1.5,3.3,1.5h0.7
		c2-0.1,4-1.1,5.3-2.6C57.7,90,58.1,86.9,57,84.3z M52.8,90.3c-0.8,0.8-1.9,1.1-3.1,1.1c-1.2,0-2.3-0.5-3-1.4
		c-0.1-0.1-0.1-0.2-0.1-0.3c0-1.6,0-3.3,0-4.9c0.7-0.9,1.8-1.5,3-1.5c1.2,0,2.4,0.3,3.2,1.1c0.8,0.8,1.2,1.9,1.2,3
		C54,88.4,53.6,89.5,52.8,90.3z"/>
	<path class="st3" d="M87.1,82.5c-1.6-2-4.2-3-6.7-2.6c-1,0.2-2,0.7-2.7,1.4c0-2.7,0-5.3,0-8c-1.2,0-2.4,0-3.7,0
		c0,7.1,0,14.1,0,21.2c1,0,1.9,0,2.9,0c0.3,0,0.6,0,0.7-0.3c0.1-0.3,0.1-0.6,0.1-0.9c0.8,0.9,2.1,1.4,3.3,1.5h0.8c2-0.1,4-1,5.2-2.6
		c1-1.3,1.6-2.9,1.7-4.5v-1C88.6,85.3,88.1,83.7,87.1,82.5z M84.3,89.9c-1,1.2-2.7,1.7-4.2,1.5c-0.9-0.2-1.8-0.7-2.4-1.5
		c-0.1-0.6,0-1.2,0-1.8c0-1.1,0-2.2,0-3.3c0.6-0.8,1.4-1.3,2.4-1.5c1.7-0.3,3.6,0.4,4.5,1.9C85.4,86.6,85.3,88.6,84.3,89.9z"/>
</g>
</svg>
