<?xml version="1.0" encoding="utf-8"?>
<!-- Generator: Adobe Illustrator 25.1.0, SVG Export Plug-In . SVG Version: 6.00 Build 0)  -->
<svg version="1.1" id="Layer_1" xmlns="http://www.w3.org/2000/svg" xmlns:xlink="http://www.w3.org/1999/xlink" x="0px" y="0px"
	 viewBox="0 0 100 100" style="enable-background:new 0 0 100 100;" xml:space="preserve">
<style type="text/css">
	.st0{fill:#AA7444;}
	.st1{fill:#FFFFFF;}
</style>
<rect x="0.1" class="st0" width="100" height="100"/>
<g>
	<path class="st1" d="M83.1,21.6c-2.2-2.1-4.8-3.7-7.7-4.5L75,17l-0.1-0.4C73.5,9.8,67.6,5,60.7,5c-4.7,0-9.1,2.3-11.8,6.1l-0.4,0.6
		l-4.9-3l-11.4,2.8L7.6,51.9l28,17.1l14.2-23.4l-2-1.2l-13,21.4l-24-14.6l22.9-37.7l9.5-2.3l4.2,2.5l-0.2,0.6c-0.7,1.7-1,3.4-1,5.2
		c0,0.8,0.1,1.6,0.2,2.3l2.3-0.5c-0.1-0.6-0.1-1.2-0.1-1.8c0-1.3,0.2-2.5,0.6-3.7l0.3-0.9l4.3,2.6l1.2-2l-4.4-2.7l0.5-0.7
		c2.3-3.1,5.9-4.8,9.7-4.8c5.2,0,9.8,3.3,11.5,8.1l0.4,1l-1.1-0.1c-0.5,0-1.1,0-1.6,0c-9.5,0.3-17.5,8.2-17.8,17.7
		c-0.2,7.5,4.1,14.4,11,17.4l0.4,0.2v43.3h7.2l6.5-4.4V77.9l-3-2.3l3-2.3v-5l-3-2.3l3-2.3V51.7l0.4-0.2c6.7-2.9,11-9.5,11-16.8
		C88.7,29.7,86.7,25,83.1,21.6z M73.8,25.9l0.6,1.3c0.3,0.6,0.4,1.2,0.4,1.9c0,2.5-2,4.5-4.5,4.5c-0.6,0-1.3-0.1-1.9-0.4l-1.3-0.6
		l1.2-0.7c1.9-1.2,3.6-2.8,4.8-4.8L73.8,25.9z M75.7,49.8L74.9,50v12.7l-4.6,3.4l4.6,3.4v2.6l-4.6,3.4l4.6,3.4v10.2L70,92.6h-4.2V50
		l-0.8-0.3c-6.6-2.3-10.9-8.6-10.6-15.6c0.3-8.3,7.2-15.2,15.5-15.5c0.8,0,1.6,0,2.3,0.1l0.7,0.1l0,0.7c0,1.4-0.3,2.8-0.8,4.1
		c-1,2.6-2.9,4.9-5.3,6.3l-1,0.6l-0.1-1.1c0-0.1,0-0.3,0-0.4c0-0.8,0.2-1.5,0.5-2.1l-1.9-1.4c-0.6,1.1-1,2.3-1,3.6
		c0,3.8,3.1,6.9,6.9,6.9c3.8,0,6.9-3.1,6.9-6.9c0-1.9-0.8-3.7-2.2-5l-0.3-0.3l0.1-0.4c0.2-0.9,0.4-1.8,0.5-2.8l0.1-1l0.9,0.4
		c2,0.8,3.8,1.9,5.3,3.4c3.1,3,4.8,7.1,4.8,11.5C86.4,41.5,82.1,47.5,75.7,49.8z"/>
	<rect x="30" y="36" transform="matrix(0.5196 -0.8544 0.8544 0.5196 -23.2775 48.1059)" class="st1" width="2.3" height="17.6"/>
	<rect x="26" y="46.3" transform="matrix(0.5196 -0.8544 0.8544 0.5196 -30.7444 47.8505)" class="st1" width="2.3" height="10"/>
</g>
</svg>
