<?xml version="1.0" encoding="utf-8"?>
<!-- Generator: Adobe Illustrator 25.1.0, SVG Export Plug-In . SVG Version: 6.00 Build 0)  -->
<svg version="1.1" id="Layer_1" xmlns="http://www.w3.org/2000/svg" xmlns:xlink="http://www.w3.org/1999/xlink" x="0px" y="0px"
	 viewBox="0 0 100 100" style="enable-background:new 0 0 100 100;" xml:space="preserve">
<style type="text/css">
	.st0{fill:#010101;}
</style>
<path class="st0" d="M95.1,41.3c0.7-9.1-4.6-17-12.5-18.9c-1-9.8-8.3-17-17.4-17c-10.4,0-19.5,9.3-20.4,20.8c0,0.6-0.1,1.1-0.1,1.7
	c-4.9-2.5-9.7-10.2-11.6-15.3c-0.2-0.6-0.8-1-1.4-0.9c-0.6,0-1.2,0.4-1.3,1c-2.9,9.7-8,15.9-15.6,19c-0.5,0.2-0.8,0.7-0.9,1.2
	c0,0.5,0.2,1.1,0.7,1.3c2.7,1.5,5.3,2.8,8,3.6c-3.5,6-7.1,9.4-12.2,11.5c-0.5,0.2-0.8,0.7-0.9,1.2c0,0.5,0.2,1.1,0.7,1.3
	c2.6,1.6,5.6,2.9,8.8,3.9c-3.4,5-6.6,8.6-13,10.7c-0.5,0.2-0.9,0.6-1,1.2c-0.1,0.6,0.2,1.1,0.7,1.4c6.5,4,14.2,6.3,22.2,6.8v10.1
	c0,0,0,0.1,0,0.1c-8.2,1.3-15.1,3.2-19.7,5.8c-0.7,0.4-0.9,1.3-0.6,2c0.4,0.7,1.3,0.9,2,0.6c7.7-4.3,22.9-6.9,39.7-6.9
	c17.4,0,33.3,2.9,40.5,7.4c0.2,0.1,0.5,0.2,0.8,0.2c0.5,0,0.9-0.2,1.2-0.7c0.4-0.7,0.2-1.6-0.5-2c-4.9-3-13.1-5.4-23-6.7
	c0,0,0-0.1,0-0.1l0-14c1.8,1.1,4,1.7,6.3,1.7c1.5,0,2.9-0.2,4.3-0.7c4.1-1.3,7-4.5,8.1-8.5c0.6-2.2,0.6-4.7-0.1-7.5
	C91.6,53,94.6,47.4,95.1,41.3z M22.4,55.6c0.3-0.4,0.3-0.9,0.1-1.3c-0.2-0.4-0.5-0.8-1-0.9c-2.7-0.6-5.2-1.6-7.5-2.7
	c4.8-2.6,8.5-6.7,12-13.1c0.2-0.4,0.2-0.9,0.1-1.3c-0.2-0.4-0.5-0.7-1-0.8C23,35,20.7,34.1,18.5,33c6-3.3,10.5-8.7,13.4-16.1
	c2.7,5.5,7.5,12.2,13,14.1c0.1,0.6,0.2,1.2,0.3,1.8c-9.1,5.8-11.1,18.6-7.5,27.6c2,5.1,5.5,8.5,9.9,10.1C34.7,74.6,20.7,73.7,9.8,68
	C15.7,65.2,18.9,61,22.4,55.6z M30.8,75.8c0.2,0,0.4,0,0.6,0c1.3,0,2.6-0.1,3.8-0.1v9.1c0,0.1,0,0.2,0.1,0.3c-1.5,0.1-3,0.3-4.5,0.5
	V75.8z M38,84.8C38,84.8,38.1,84.8,38,84.8l0-9.4c4.5-0.5,9-1.6,13.4-3.3c0.4-0.1,0.7-0.4,0.8-0.8c0.4,0,0.8,0.1,1.3,0.1
	c1.5,0,3.1-0.2,4.7-0.6c0,2.7-0.1,5.4-0.1,7.5C58,80.8,58,83,57.9,84.5c0,0.1,0,0.1,0,0.1c-2.8-0.2-5.7-0.2-8.7-0.2
	C45.5,84.4,41.7,84.6,38,84.8z M81.2,56.6c-0.7,0.3-1.1,1.1-0.8,1.9c0.3,0.7,1.1,1.1,1.9,0.8c0.8-0.3,1.5-0.7,2.3-1.1
	c0.3,1.9,0.3,3.6-0.1,5.1c-1.1,4.3-4.4,5.9-6.3,6.5c-3.2,1.1-6.7,0.6-9-1.2c-0.2-0.2-0.5-0.2-0.7-0.3l0-17.5
	c7.1-2.2,12.7-4.4,14.9-10.9c0.3-0.7-0.1-1.6-0.9-1.8c-0.8-0.3-1.6,0.1-1.8,0.9c-1.8,5-6.3,7-12.4,8.9c-2.5-6-0.6-19.3,2.8-25.5
	c0.4-0.7,0.1-1.6-0.6-1.9c-0.7-0.4-1.6-0.1-1.9,0.6c-1.7,3.1-3,7.7-3.7,12.4c-2.1-1.9-3.4-3.6-3.8-6.6c-0.1-0.8-0.8-1.3-1.6-1.2
	c-0.8,0.1-1.3,0.8-1.2,1.6c0.5,4.2,2.5,6.6,5.5,9c0.2,0.2,0.5,0.3,0.8,0.3c-0.4,4.8-0.1,9.4,1.2,12.6l0,36.2
	c-1.5-0.2-3.1-0.3-4.7-0.4c0-0.1,0.1-0.2,0.1-0.3c0-1.5,0.1-3.7,0.1-6.1c0.4-18.2,0-19.9-1.2-20.7c-1.4-0.9-2.6-1.4-3.7-1.8
	c-2.5-1-4.3-1.7-6.7-6.4c-0.4-0.7-1.2-1-1.9-0.6c-0.7,0.4-1,1.2-0.6,1.9c2.9,5.7,5.5,6.7,8.2,7.8c0.9,0.4,1.9,0.8,2.9,1.4
	c0.3,1.1,0.4,4.3,0.3,8c-11.8,2.8-16.4-5.1-17.8-8.7c-3.2-8.1-1.1-20,7.2-24.6c0.6-0.3,0.9-1,0.7-1.7c-0.6-2.1-0.8-4.4-0.7-6.8
	c0.8-10,8.6-18.1,17.5-18.1c7.9,0,14.2,6.6,14.6,15.4c0,0.7,0.5,1.2,1.2,1.4c7,1.1,11.8,8,11.2,16.1C91.7,48,87.3,54.3,81.2,56.6z"
	/>
</svg>
