<?xml version="1.0" encoding="utf-8"?>
<!-- Generator: Adobe Illustrator 25.1.0, SVG Export Plug-In . SVG Version: 6.00 Build 0)  -->
<svg version="1.1" id="Layer_1" xmlns="http://www.w3.org/2000/svg" xmlns:xlink="http://www.w3.org/1999/xlink" x="0px" y="0px"
	 viewBox="0 0 100 100" style="enable-background:new 0 0 100 100;" xml:space="preserve">
<style type="text/css">
	.st0{fill:#F3BF67;}
	.st1{fill:#FFFFFF;}
</style>
<rect x="-0.3" class="st0" width="100" height="100"/>
<g>
	<path class="st1" d="M87.6,57.1c3.5,0,6.3-2.8,6.3-6.3c0-0.1,0-0.3-0.1-0.4L83.1,26.6C83,26.2,82.6,26,82.3,26h-0.7V13.6
		c0,0,0,0,0,0c0-0.1,0-0.2-0.1-0.3c0,0,0-0.1,0-0.1c0-0.1-0.1-0.2-0.2-0.3c0,0,0,0-0.1,0c-0.1-0.1-0.1-0.1-0.2-0.1L65.7,5.1
		C65.6,5,65.5,5,65.3,5H34.7c-0.1,0-0.3,0-0.4,0.1l-15.3,7.7c-0.1,0-0.1,0.1-0.2,0.1c0,0,0,0-0.1,0c-0.1,0.1-0.1,0.2-0.2,0.3
		c0,0,0,0.1,0,0.1c0,0.1,0,0.2-0.1,0.2c0,0,0,0,0,0V26h-0.7c-0.4,0-0.7,0.2-0.9,0.6L6.1,50.4C6.1,50.5,6,50.7,6,50.8
		c0,3.5,2.8,6.3,6.3,6.3c1.7,0,3.3-0.7,4.4-1.8V93h-5.1c-0.5,0-1,0.4-1,1c0,0.5,0.4,1,1,1h6h64.5h6c0.5,0,1-0.4,1-1c0-0.5-0.4-1-1-1
		h-5.1V55.3C84.4,56.4,85.9,57.1,87.6,57.1z M72,26H28v-3.8h44V26z M34.9,6.9h30.2l11.5,5.7H23.4L34.9,6.9z M20.3,14.5h59.3V26h-5.7
		v-4.8c0-0.5-0.4-1-1-1H27c-0.5,0-1,0.4-1,1V26h-5.7V14.5z M12.4,55.2C10,55.2,8.1,53.3,8,51l10.4-23.1h63.3L92.1,51
		c-0.1,2.3-2,4.2-4.4,4.2c-2.4,0-4.4-2-4.4-4.4c0,0,0,0,0,0v-7.5c0-0.5-0.4-1-1-1c-0.5,0-1,0.4-1,1v7.5c0,0,0,0,0,0
		c0,2.4-2,4.4-4.4,4.4c0,0,0,0,0,0c-0.3,0-0.5,0-0.8-0.1c-0.1,0-0.1,0-0.2,0c-0.2-0.1-0.5-0.1-0.7-0.2c0,0,0,0-0.1,0
		c-0.2-0.1-0.4-0.2-0.6-0.3c-0.1,0-0.1-0.1-0.2-0.1c-0.2-0.1-0.4-0.3-0.6-0.5c0,0,0,0,0,0c-0.2-0.2-0.3-0.4-0.5-0.6
		c0-0.1-0.1-0.1-0.1-0.2c-0.1-0.2-0.2-0.4-0.3-0.6c0,0,0-0.1-0.1-0.1c-0.1-0.2-0.2-0.5-0.2-0.7c0-0.1,0-0.1,0-0.2
		c0-0.3-0.1-0.5-0.1-0.8c0,0,0,0,0,0v-7.5c0-0.5-0.4-1-1-1c-0.5,0-1,0.4-1,1v7.5c0,0,0,0,0,0c0,2.4-2,4.4-4.4,4.4
		c-1.8,0-3.4-1.1-4.1-2.7c-0.2-0.5-0.3-1.1-0.3-1.7c0,0,0,0,0,0v-7.5c0-0.5-0.4-1-1-1c-0.5,0-1,0.4-1,1v7.5c0,0,0,0,0,0
		c0,2.4-2,4.4-4.4,4.4c-2.4,0-4.4-2-4.4-4.4c0,0,0,0,0,0v-7.5c0-0.5-0.4-1-1-1c-0.5,0-1,0.4-1,1v7.5c0,0,0,0,0,0
		c0,2.4-2,4.4-4.4,4.4c-2.4,0-4.4-2-4.4-4.4c0,0,0,0,0,0v-7.5c0-0.5-0.4-1-1-1c-0.5,0-1,0.4-1,1v7.5c0,0,0,0,0,0
		c0,2.4-2,4.4-4.4,4.4c-2.4,0-4.4-2-4.4-4.4c0,0,0,0,0,0v-7.5c0-0.5-0.4-1-1-1s-1,0.4-1,1v7.5c0,0,0,0,0,0c0,0.3,0,0.5-0.1,0.8
		c0,0.1,0,0.1,0,0.2c-0.1,0.2-0.1,0.5-0.2,0.7c0,0,0,0.1-0.1,0.1c-0.1,0.2-0.2,0.4-0.3,0.6c0,0.1-0.1,0.1-0.1,0.2
		c-0.1,0.2-0.3,0.4-0.5,0.6c0,0,0,0,0,0c-0.2,0.2-0.4,0.3-0.6,0.5c0,0-0.1,0.1-0.2,0.1c-0.2,0.1-0.4,0.2-0.6,0.3c0,0,0,0-0.1,0
		c-0.2,0.1-0.5,0.2-0.7,0.2c-0.1,0-0.1,0-0.2,0c-0.3,0-0.5,0.1-0.8,0.1c-2.4,0-4.4-2-4.4-4.4v-7.5c0-0.5-0.4-1-1-1c-0.5,0-1,0.4-1,1
		v7.5c0,0,0,0,0,0C16.8,53.2,14.8,55.2,12.4,55.2z M81.3,55.3V93H18.7l0-37.7c0,0,0,0,0,0c0,0,0,0,0.1,0c0.2,0.1,0.3,0.3,0.5,0.4
		c0.1,0,0.1,0.1,0.2,0.1c0.1,0.1,0.3,0.2,0.5,0.3c0.1,0,0.1,0.1,0.2,0.1c0.2,0.1,0.4,0.2,0.7,0.3c0,0,0,0,0,0
		c0.2,0.1,0.4,0.2,0.6,0.2c0.1,0,0.1,0,0.2,0.1c0.2,0,0.4,0.1,0.5,0.1c0.1,0,0.1,0,0.2,0c0.2,0,0.5,0,0.8,0c0,0,0,0,0,0s0,0,0,0
		c0.3,0,0.6,0,0.9-0.1c0.1,0,0.1,0,0.2,0c0.2,0,0.5-0.1,0.7-0.1c0,0,0,0,0,0v29.4c0,0.5,0.4,1,1,1h14.6h19.1h14.6h0c0.5,0,1-0.4,1-1
		V56.9c0,0,0,0,0,0c0.2,0.1,0.4,0.1,0.6,0.1c0.1,0,0.1,0,0.2,0c0.3,0,0.6,0.1,0.9,0.1c0,0,0,0,0,0c0,0,0,0,0,0s0,0,0,0c0,0,0,0,0,0
		c0.3,0,0.5,0,0.8,0c0.1,0,0.1,0,0.2,0c0.2,0,0.4-0.1,0.5-0.1c0.1,0,0.1,0,0.2-0.1c0.2-0.1,0.4-0.1,0.6-0.2c0,0,0.1,0,0.1,0
		c0.2-0.1,0.4-0.2,0.6-0.3c0.1,0,0.1-0.1,0.2-0.1c0.1-0.1,0.3-0.2,0.4-0.3c0.1,0,0.1-0.1,0.2-0.1c0.2-0.1,0.3-0.2,0.4-0.4
		C81.2,55.4,81.3,55.4,81.3,55.3C81.3,55.4,81.3,55.3,81.3,55.3z M27.7,55.2c0.1-0.1,0.1-0.1,0.1-0.2c0.3-0.3,0.5-0.6,0.7-0.9
		c0.1,0.1,0.1,0.2,0.2,0.2c0.1,0.1,0.2,0.3,0.3,0.4c0.1,0.1,0.2,0.2,0.3,0.3c0.1,0.1,0.2,0.2,0.3,0.3c0.1,0.1,0.2,0.2,0.3,0.3
		c0.1,0.1,0.2,0.2,0.3,0.3c0.1,0.1,0.2,0.1,0.2,0.2c0.1,0.1,0.3,0.2,0.4,0.3c0,0,0,0,0.1,0c0.9,0.5,2,0.8,3.1,0.8c0,0,0,0,0,0
		s0,0,0,0c2.3,0,4.3-1.2,5.4-3c1.1,1.8,3.1,3,5.4,3c0,0,0,0,0,0s0,0,0,0c2.3,0,4.3-1.2,5.4-3c1.1,1.8,3.1,3,5.4,3c0,0,0,0,0,0
		s0,0,0,0c2.3,0,4.3-1.2,5.4-3c1.1,1.8,3.1,3,5.4,3c0,0,0,0,0,0s0,0,0,0c2.3,0,4.3-1.2,5.4-3c0.2,0.3,0.4,0.6,0.7,0.9
		c0.1,0.1,0.1,0.1,0.2,0.2c0.3,0.3,0.5,0.5,0.8,0.7c0,0,0,0,0.1,0v29.4H60.5V67.2c0-0.5-0.4-1-1-1H40.4c-0.5,0-1,0.4-1,1v18.2H26.8
		V56c0,0,0,0,0,0C27.1,55.7,27.4,55.5,27.7,55.2z M58.6,85.4H41.4V68.1h17.2V85.4z"/>
	<path class="st1" d="M48.1,77.7h3.8c0.5,0,1-0.4,1-1c0-0.5-0.4-1-1-1h-3.8c-0.5,0-1,0.4-1,1C47.1,77.3,47.6,77.7,48.1,77.7z"/>
</g>
</svg>
