<?xml version="1.0" encoding="utf-8"?>
<!-- Generator: Adobe Illustrator 25.1.0, SVG Export Plug-In . SVG Version: 6.00 Build 0)  -->
<svg version="1.1" id="Layer_1" xmlns="http://www.w3.org/2000/svg" xmlns:xlink="http://www.w3.org/1999/xlink" x="0px" y="0px"
	 viewBox="0 0 100 100" style="enable-background:new 0 0 100 100;" xml:space="preserve">
<style type="text/css">
	.st0{fill:#F79668;}
	.st1{fill:#FFFFFF;}
</style>
<rect class="st0" width="100" height="100"/>
<g>
	<path class="st1" d="M94,90.1h-4.9V23.5H92c0.5,0,1-0.4,1-1s-0.4-1-1-1h-3.9c0,0,0,0,0,0s0,0,0,0H69.5V9.8h2.9c0.5,0,1-0.4,1-1
		c0-0.5-0.4-1-1-1h-3.9c0,0,0,0,0,0H31.3c0,0,0,0,0,0h-3.9c-0.5,0-1,0.4-1,1c0,0.5,0.4,1,1,1h2.9v11.7H11.7c0,0,0,0,0,0s0,0,0,0H7.8
		c-0.5,0-1,0.4-1,1s0.4,1,1,1h2.9v66.6H5.8c-0.5,0-1,0.4-1,1c0,0.5,0.4,1,1,1h5.9h19.6h11.7h13.7h11.7h19.6H94c0.5,0,1-0.4,1-1
		C94.9,90.6,94.5,90.1,94,90.1z M55.8,90.1H44V72.5h11.7V90.1z M87.1,23.5v66.6H69.5V23.5H87.1z M67.5,9.8v12.7v67.6h-9.8V71.5
		c0-0.5-0.4-1-1-1H43.1c-0.5,0-1,0.4-1,1v18.6h-9.8V22.6V9.8H67.5z M30.3,90.1H12.7V23.5h17.6V90.1z"/>
	<rect x="72.4" y="26.5" class="st1" width="3.9" height="3.9"/>
	<rect x="80.3" y="26.5" class="st1" width="3.9" height="3.9"/>
	<rect x="72.4" y="32.4" class="st1" width="3.9" height="3.9"/>
	<rect x="80.3" y="32.4" class="st1" width="3.9" height="3.9"/>
	<rect x="72.4" y="38.2" class="st1" width="3.9" height="3.9"/>
	<rect x="80.3" y="38.2" class="st1" width="3.9" height="3.9"/>
	<rect x="72.4" y="44.1" class="st1" width="3.9" height="3.9"/>
	<rect x="80.3" y="44.1" class="st1" width="3.9" height="3.9"/>
	<rect x="72.4" y="50" class="st1" width="3.9" height="3.9"/>
	<rect x="80.3" y="50" class="st1" width="3.9" height="3.9"/>
	<rect x="72.4" y="55.9" class="st1" width="3.9" height="3.9"/>
	<rect x="80.3" y="55.9" class="st1" width="3.9" height="3.9"/>
	<rect x="72.4" y="61.7" class="st1" width="3.9" height="3.9"/>
	<rect x="80.3" y="61.7" class="st1" width="3.9" height="3.9"/>
	<rect x="72.4" y="67.6" class="st1" width="3.9" height="3.9"/>
	<rect x="80.3" y="67.6" class="st1" width="3.9" height="3.9"/>
	<rect x="15.6" y="26.5" class="st1" width="3.9" height="3.9"/>
	<rect x="23.5" y="26.5" class="st1" width="3.9" height="3.9"/>
	<rect x="39.1" y="12.8" class="st1" width="3.9" height="7.8"/>
	<rect x="45" y="12.8" class="st1" width="3.9" height="7.8"/>
	<rect x="50.9" y="12.8" class="st1" width="3.9" height="7.8"/>
	<rect x="56.8" y="12.8" class="st1" width="3.9" height="7.8"/>
	<rect x="39.1" y="22.6" class="st1" width="3.9" height="7.8"/>
	<rect x="45" y="22.6" class="st1" width="3.9" height="7.8"/>
	<rect x="50.9" y="22.6" class="st1" width="3.9" height="7.8"/>
	<rect x="56.8" y="22.6" class="st1" width="3.9" height="7.8"/>
	<rect x="39.1" y="32.4" class="st1" width="3.9" height="7.8"/>
	<rect x="45" y="32.4" class="st1" width="3.9" height="7.8"/>
	<rect x="50.9" y="32.4" class="st1" width="3.9" height="7.8"/>
	<rect x="56.8" y="32.4" class="st1" width="3.9" height="7.8"/>
	<rect x="39.1" y="42.1" class="st1" width="3.9" height="7.8"/>
	<rect x="45" y="42.1" class="st1" width="3.9" height="7.8"/>
	<rect x="50.9" y="42.1" class="st1" width="3.9" height="7.8"/>
	<rect x="56.8" y="42.1" class="st1" width="3.9" height="7.8"/>
	<rect x="39.1" y="51.9" class="st1" width="3.9" height="7.8"/>
	<rect x="45" y="51.9" class="st1" width="3.9" height="7.8"/>
	<rect x="50.9" y="51.9" class="st1" width="3.9" height="7.8"/>
	<rect x="56.8" y="51.9" class="st1" width="3.9" height="7.8"/>
	<rect x="15.6" y="32.4" class="st1" width="3.9" height="3.9"/>
	<rect x="23.5" y="32.4" class="st1" width="3.9" height="3.9"/>
	<rect x="15.6" y="38.2" class="st1" width="3.9" height="3.9"/>
	<rect x="23.5" y="38.2" class="st1" width="3.9" height="3.9"/>
	<rect x="15.6" y="44.1" class="st1" width="3.9" height="3.9"/>
	<rect x="23.5" y="44.1" class="st1" width="3.9" height="3.9"/>
	<rect x="15.6" y="50" class="st1" width="3.9" height="3.9"/>
	<rect x="23.5" y="50" class="st1" width="3.9" height="3.9"/>
	<rect x="15.6" y="55.9" class="st1" width="3.9" height="3.9"/>
	<rect x="23.5" y="55.9" class="st1" width="3.9" height="3.9"/>
	<rect x="15.6" y="61.7" class="st1" width="3.9" height="3.9"/>
	<rect x="23.5" y="61.7" class="st1" width="3.9" height="3.9"/>
	<rect x="15.6" y="67.6" class="st1" width="3.9" height="3.9"/>
	<rect x="23.5" y="67.6" class="st1" width="3.9" height="3.9"/>
</g>
</svg>
