<?xml version="1.0" encoding="utf-8"?>
<!-- Generator: Adobe Illustrator 25.1.0, SVG Export Plug-In . SVG Version: 6.00 Build 0)  -->
<svg version="1.1" id="Layer_1" xmlns="http://www.w3.org/2000/svg" xmlns:xlink="http://www.w3.org/1999/xlink" x="0px" y="0px"
	 viewBox="0 0 100 100" style="enable-background:new 0 0 100 100;" xml:space="preserve">
<style type="text/css">
	.st0{fill:#F47E54;}
	.st1{fill:#FFFFFF;}
</style>
<rect class="st0" width="100" height="100"/>
<g>
	<path class="st1" d="M54.4,42.8c-0.5-1.4-1.6-2.6-3-3c-2.4-0.7-4.9,0.9-5.5,3.5c0,0.1,0,0.2,0,0.3h-0.8c-0.2,0-0.4,0.2-0.4,0.4
		c0,0.2,0.2,0.4,0.4,0.4h1c0,1.9,1.3,3.6,3.2,4.1c0.4,0.1,0.7,0.1,1.1,0.1c1.9,0,3.6-1.3,4.1-3.2c0.1-0.3,0.1-0.7,0.1-1h0.1
		c0.2,0,0.4-0.2,0.4-0.4c0-0.2-0.2-0.4-0.4-0.4h-0.1C54.6,43.3,54.5,43.1,54.4,42.8C54.4,42.8,54.4,42.8,54.4,42.8z M53.1,45
		c-0.3,1.2-1.5,2.1-2.8,2.1c-0.2,0-0.5,0-0.7-0.1c-0.7-0.2-1.4-0.7-1.7-1.3c-0.2-0.4-0.4-0.9-0.4-1.4h5.7
		C53.2,44.5,53.2,44.7,53.1,45z"/>
	<path class="st1" d="M48.5,52.8l-0.9,6.4L43.3,64c-0.4,0.5-0.7,1.1-0.6,1.8c0,0.4,0.2,0.8,0.4,1.2l-7.7,3.6l-1-2.1
		c-0.2-0.4-0.6-0.5-0.9-0.3l-2.7,1.2c-2.6,1.2-2,5.1-2,5.1c0,0,2.6,2.9,5.2,1.7l2.7-1.2c0.4-0.2,0.5-0.6,0.3-0.9l-0.7-1.5l-0.3,0.1
		c-2.4,1.1-4.5,1.8-4.7,1.4c-0.1-0.1,0.1-0.3,0.5-0.6c0.8-0.1,2.4-0.7,4.2-1.5l8.4-3.9c0.3,0.1,0.6,0.2,0.9,0.2
		c0.7,0,1.4-0.3,1.9-0.8l0.9-1l7.8-3.6l0.8,1.4l-3.8,7.5c-0.2,0.5-0.3,1-0.3,1.6l0.9,9.5c0.1,1.6,1.5,2.7,3.1,2.6
		c1.6-0.1,2.7-1.5,2.6-3.1l-0.8-8.6l4-7.8l0.4,7.3c0,0.2,0,0.4,0.1,0.6l2.7,9.9c0.3,1.2,1.5,2.1,2.8,2.1c0.3,0,0.5,0,0.8-0.1
		c0.7-0.2,1.3-0.7,1.7-1.3c0.4-0.7,0.5-1.4,0.3-2.2l-2.7-9.6l-0.5-8.9c-0.1-0.9-0.4-2.2-0.9-3l-1.4-2.4l4.1-1.9l0.1,0.1
		c0.5,0.4,1,0.6,1.7,0.6c0.7,0,1.4-0.3,1.9-0.8c0.4-0.5,0.7-1.1,0.6-1.8c0-0.7-0.3-1.3-0.8-1.7l-5.4-4.8c-0.4-0.3-0.8-0.5-1.3-0.6
		l-7.1-1c-0.6-0.1-1.1,0-1.6,0.3L49.8,51C49.1,51.4,48.6,52,48.5,52.8z M50.3,63.7l1.6-1.8c0.3-0.4,0.5-0.8,0.6-1.3l0.4-2.8l2.1,3.7
		L50.3,63.7z M64.8,56.9l-3.1-5.4l3.2,0.5l3.6,3.2L64.8,56.9z M58.3,47.7c0.2-0.1,0.4-0.2,0.7-0.1l7.1,1c0.2,0,0.4,0.1,0.6,0.3
		l5.4,4.8c0.2,0.2,0.3,0.5,0.4,0.7c0,0.3-0.1,0.6-0.3,0.8c-0.2,0.2-0.5,0.4-0.8,0.4c-0.1,0-0.2,0-0.2,0l0.6-0.3
		c0.4-0.2,0.5-0.6,0.3-0.9c-0.2-0.4-0.6-0.5-0.9-0.3l-1.3,0.6l-4.2-3.7c-0.1-0.1-0.2-0.2-0.4-0.2l-4.9-0.7c-0.3,0-0.5,0.1-0.7,0.3
		c-0.2,0.2-0.2,0.5,0,0.8l0.8,1.4c-0.1,0-0.1,0-0.2,0c-0.6,0-1.2-0.3-1.5-0.8l0,0l-2-3L58.3,47.7z M55.6,49.3l2,3.1l-2.5,1.6
		l-1.9-3.3L55.6,49.3z M50.5,52.2l1.5-0.9l2,3.5c0.1,0.2,0.2,0.5,0.2,0.8c0,0.4-0.1,0.7-0.4,1l-0.8-1.4c-0.2-0.3-0.5-0.4-0.8-0.3
		c-0.3,0.1-0.5,0.3-0.6,0.6L51,60.4c0,0.2-0.1,0.4-0.3,0.6L47,65.2l-2.7,1.2c-0.2-0.2-0.3-0.4-0.3-0.7c0-0.3,0.1-0.6,0.3-0.8l4.5-5
		c0.1-0.1,0.2-0.2,0.2-0.4l1-6.6C50,52.7,50.2,52.4,50.5,52.2z"/>
	<path class="st1" d="M94.7,87.6L54.8,13.9c-1.3-2.3-3-3.6-4.8-3.6c-1.9,0-3.6,1.3-4.8,3.6L5.2,87.6c-0.1,0.2-0.1,0.5,0,0.7
		c0.1,0.2,0.4,0.4,0.6,0.4H94c0.3,0,0.5-0.1,0.6-0.4C94.8,88.1,94.8,87.8,94.7,87.6z M7,87.2l39.3-72.7c1-1.8,2.3-2.8,3.6-2.8
		c1.3,0,2.6,1,3.6,2.8l39.3,72.7H7z"/>
	<path class="st1" d="M32.3,80.4c-0.9,0-2.3,0.9-3.6,2.1c-2-1.8-4.1-3.4-5.4-3.4c-2,0-6.4,4.2-8.6,6.5h10.7h6.6h7.4
		C37.5,83.8,34,80.4,32.3,80.4z"/>
</g>
</svg>
