<?xml version="1.0" encoding="utf-8"?>
<!-- Generator: Adobe Illustrator 25.1.0, SVG Export Plug-In . SVG Version: 6.00 Build 0)  -->
<svg version="1.1" id="Layer_1" xmlns="http://www.w3.org/2000/svg" xmlns:xlink="http://www.w3.org/1999/xlink" x="0px" y="0px"
	 viewBox="0 0 100 100" style="enable-background:new 0 0 100 100;" xml:space="preserve">
<style type="text/css">
	.st0{fill:#010101;}
</style>
<g>
	<path class="st0" d="M50.4,41.4c0.2,0,0.5,0,0.7,0.1c0.7,0.2,1.4,0.7,1.7,1.3c0.4,0.7,0.5,1.4,0.3,2.2c-0.3,1.2-1.5,2.1-2.8,2.1
		c-0.2,0-0.5,0-0.7-0.1c-0.7-0.2-1.4-0.7-1.7-1.3c-0.4-0.7-0.5-1.4-0.3-2.2C48,42.2,49.1,41.4,50.4,41.4L50.4,41.4z M50.4,39.9
		c-1.9,0-3.6,1.3-4.1,3.2c-0.6,2.3,0.7,4.6,3,5.2c0.4,0.1,0.7,0.1,1.1,0.1c1.9,0,3.6-1.3,4.1-3.2c0.6-2.3-0.7-4.6-3-5.2
		C51.1,40,50.7,39.9,50.4,39.9L50.4,39.9z"/>
	<path class="st0" d="M73.1,52.6l-5.4-4.8c-0.4-0.3-0.8-0.5-1.3-0.6l-7.1-1c-0.6-0.1-1.1,0-1.6,0.3L49.8,51c-0.7,0.4-1.1,1-1.2,1.8
		l-0.9,6.4L43.3,64c-0.4,0.5-0.7,1.1-0.6,1.8c0,0.7,0.3,1.3,0.8,1.7c0.5,0.4,1,0.6,1.7,0.6c0.7,0,1.4-0.3,1.9-0.8l4.8-5.4
		c0.3-0.4,0.5-0.8,0.6-1.3l0.4-2.8l3.7,6.4l-3.8,7.5c-0.2,0.5-0.3,1-0.3,1.6l0.9,9.5c0.1,1.6,1.5,2.7,3.1,2.6
		c1.6-0.1,2.7-1.5,2.6-3.1l-0.8-8.6l4-7.8l0.4,7.3c0,0.2,0,0.4,0.1,0.6l2.7,9.9c0.3,1.2,1.5,2.1,2.8,2.1c0.3,0,0.5,0,0.8-0.1
		c0.7-0.2,1.3-0.7,1.7-1.3c0.4-0.7,0.5-1.4,0.3-2.2l-2.7-9.6l-0.5-8.9c-0.1-0.9-0.4-2.2-0.9-3l-5.2-9l3.2,0.5l4.9,4.3
		c0.5,0.4,1,0.6,1.7,0.6l0,0c0.7,0,1.4-0.3,1.9-0.8c0.4-0.5,0.7-1.1,0.6-1.8C73.9,53.7,73.6,53,73.1,52.6z M55.1,53.9l-1.9-3.3
		l2.3-1.3l2,3.1L55.1,53.9z M52.3,54.9c-0.3,0.1-0.5,0.3-0.6,0.6L51,60.4c0,0.2-0.1,0.4-0.3,0.6l-4.8,5.4c-0.4,0.4-1.1,0.5-1.5,0.1
		c-0.2-0.2-0.3-0.5-0.4-0.7c0-0.3,0.1-0.6,0.3-0.8l4.5-5c0.1-0.1,0.2-0.2,0.2-0.4l1-6.6c0-0.3,0.2-0.6,0.5-0.8l1.5-0.9l2,3.5
		c0.1,0.2,0.2,0.5,0.2,0.8c0,0.4-0.1,0.7-0.4,1l-0.8-1.4C52.9,55,52.6,54.9,52.3,54.9z M72.2,55.2c-0.2,0.2-0.5,0.4-0.8,0.4
		c-0.3,0-0.5-0.1-0.7-0.3l-5-4.5c-0.1-0.1-0.2-0.2-0.4-0.2l-4.9-0.7c-0.3,0-0.5,0.1-0.7,0.3c-0.2,0.2-0.2,0.5,0,0.8l0.8,1.4
		c-0.1,0-0.1,0-0.2,0c-0.6,0-1.2-0.3-1.5-0.8l0,0l-2-3l1.5-0.9c0.2-0.1,0.4-0.2,0.7-0.1l7.1,1c0.2,0,0.4,0.1,0.6,0.3l5.4,4.8
		c0.2,0.2,0.3,0.5,0.4,0.7C72.5,54.7,72.4,55,72.2,55.2z"/>
	<path class="st0" d="M72.2,54.3c-0.2-0.4-0.6-0.5-0.9-0.3L35.3,70.7l-1-2.1c-0.2-0.4-0.6-0.5-0.9-0.3l-2.7,1.2
		c-2.6,1.2-2,5.1-2,5.1c0,0,2.6,2.9,5.2,1.7l2.7-1.2c0.4-0.2,0.5-0.6,0.3-0.9l-0.7-1.5l-0.3,0.1c-2.4,1.1-4.5,1.8-4.7,1.4
		c-0.1-0.1,0.1-0.3,0.5-0.6c0.8-0.1,2.4-0.7,4.2-1.5l35.9-16.7C72.2,55,72.3,54.6,72.2,54.3z"/>
	<path class="st0" d="M54.7,43.6L54.7,43.6c-0.4-1.8-1.6-3.2-3.3-3.7c-2.4-0.7-4.9,0.9-5.5,3.5c0,0.1,0,0.2,0,0.3h-0.8
		c-0.2,0-0.4,0.2-0.4,0.4c0,0.2,0.2,0.4,0.4,0.4h9.6c0.2,0,0.4-0.2,0.4-0.4C55.1,43.7,54.9,43.6,54.7,43.6z"/>
</g>
<path d="M94,88.7H5.8c-0.3,0-0.5-0.1-0.6-0.4c-0.1-0.2-0.1-0.5,0-0.7l39.9-73.7c1.3-2.3,3-3.6,4.8-3.6c1.9,0,3.6,1.3,4.8,3.6
	l39.9,73.7c0.1,0.2,0.1,0.5,0,0.7C94.5,88.6,94.3,88.7,94,88.7z M7,87.2h85.8L53.5,14.6c-1-1.8-2.3-2.8-3.6-2.8
	c-1.3,0-2.6,1-3.6,2.8L7,87.2z"/>
<path class="st0" d="M32.3,80.4c-1.6,0-5.2,3.4-7,5.2h13.9C37.5,83.8,34,80.4,32.3,80.4z"/>
<path class="st0" d="M23.3,79.1c-2,0-6.4,4.2-8.6,6.5h17.2C29.7,83.3,25.4,79.1,23.3,79.1z"/>
</svg>
