<?xml version="1.0" encoding="utf-8"?>
<!-- Generator: Adobe Illustrator 25.1.0, SVG Export Plug-In . SVG Version: 6.00 Build 0)  -->
<svg version="1.1" id="Layer_1" xmlns="http://www.w3.org/2000/svg" xmlns:xlink="http://www.w3.org/1999/xlink" x="0px" y="0px"
	 viewBox="0 0 100 100" style="enable-background:new 0 0 100 100;" xml:space="preserve">
<style type="text/css">
	.st0{fill:#5CA1D8;}
	.st1{fill:#FFFFFF;}
</style>
<rect class="st0" width="100" height="100"/>
<path class="st1" d="M79.2,52.8c-0.1,0-0.3,0-0.4-0.1L35.5,33.8L13.2,52.2c-0.4,0.3-0.9,0.3-1.3-0.1l-6.8-6.8
	c-0.2-0.2-0.3-0.4-0.3-0.7c0-0.3,0.1-0.5,0.3-0.7L32.1,20c0.3-0.3,0.7-0.3,1.1-0.1c0,0,0.1,0,0.1,0l51.1,22.7
	c0.2,0.1,0.4,0.3,0.5,0.6c0.1,0.3,0.1,0.5-0.1,0.8l-4.7,8.3C79.9,52.6,79.6,52.8,79.2,52.8z M35.3,31.7c0.1,0,0.3,0,0.4,0.1
	l43.1,18.8l3.7-6.7L32.9,21.8L7.2,44.7l5.4,5.4l22.1-18.2C34.9,31.8,35.1,31.7,35.3,31.7z"/>
<path class="st1" d="M76.9,77.4H15.4c-0.5,0-1-0.4-1-1V49.5c0-0.5,0.4-1,1-1c0.5,0,1,0.4,1,1v25.9h59.6v-24c0-0.5,0.4-1,1-1
	c0.5,0,1,0.4,1,1v25C77.9,77,77.4,77.4,76.9,77.4z"/>
<path class="st1" d="M94.2,77.4H9.7c-0.5,0-1-0.4-1-1s0.4-1,1-1h84.5c0.5,0,1,0.4,1,1C95.2,77,94.7,77.4,94.2,77.4z"/>
</svg>
