<?xml version="1.0" encoding="utf-8"?>
<!-- Generator: Adobe Illustrator 25.1.0, SVG Export Plug-In . SVG Version: 6.00 Build 0)  -->
<svg version="1.1" id="Layer_1" xmlns="http://www.w3.org/2000/svg" xmlns:xlink="http://www.w3.org/1999/xlink" x="0px" y="0px"
	 viewBox="0 0 100 100" style="enable-background:new 0 0 100 100;" xml:space="preserve">
<style type="text/css">
	.st0{fill:#8A6EB1;}
	.st1{fill:#FFFFFF;}
</style>
<rect class="st0" width="100" height="100"/>
<g>
	<path class="st1" d="M94.2,76.5H77.9V53.3l1,0.4c0.1,0.1,0.3,0.1,0.4,0.1c0.3,0,0.7-0.2,0.8-0.5l4.7-8.4c0.1-0.2,0.2-0.5,0.1-0.8
		c-0.1-0.3-0.3-0.5-0.5-0.6L33.2,20.9c0,0-0.1,0-0.1,0c-0.3-0.2-0.8-0.1-1.1,0.1L5.1,44.9c-0.2,0.2-0.3,0.4-0.3,0.7
		c0,0.3,0.1,0.5,0.3,0.7l6.8,6.8c0.3,0.3,0.9,0.4,1.3,0.1l1.3-1v24.4H9.6c-0.5,0-1,0.4-1,1c0,0.5,0.4,1,1,1h5.8h61.5h17.3
		c0.5,0,1-0.4,1-1C95.2,76.9,94.7,76.5,94.2,76.5z M12.6,51.1l-5.4-5.4l25.7-22.9l49.7,22.1l-3.7,6.7L35.7,32.8
		c-0.1-0.1-0.3-0.1-0.4-0.1c-0.2,0-0.4,0.1-0.6,0.2L12.6,51.1z M16.4,76.5v-26c0,0,0,0,0,0l19.1-15.7L76,52.4c0,0,0,0,0,0v24H16.4z"
		/>
	<circle class="st1" cx="35.9" cy="52.5" r="2.7"/>
	<path class="st1" d="M55.8,55.3c1.5,0,2.7-1.2,2.7-2.7s-1.2-2.7-2.7-2.7c-1.5,0-2.7,1.2-2.7,2.7S54.3,55.3,55.8,55.3z"/>
	<path class="st1" d="M58.7,56.6c-0.2-0.2-0.4-0.3-0.6-0.3h-4.5c-0.2,0-0.5,0.1-0.6,0.3l-4.4,5.7c-0.2,0.3-0.2,0.8,0,1.1l-1.3,0.9
		l-1.9,0l-1.9,0l-0.9-0.6c0.2-0.3,0.3-0.7,0.1-1l-2.9-6c-0.1-0.3-0.4-0.4-0.7-0.4l-6.2,0c-0.3,0-0.5,0.2-0.7,0.4l-2.9,5.7
		c-0.2,0.5-0.1,1,0.3,1.3c0.5,0.4,1.2,0.2,1.5-0.4l2-3.8l0.4,3.9l-1,8.1c-0.1,0.8,0.5,1.5,1.3,1.5h0c0.7,0,1.2-0.5,1.3-1.2l0.8-6.5
		l0.8,6.5c0.1,0.7,0.6,1.2,1.3,1.2c0.8,0,1.4-0.7,1.3-1.5l-0.9-8.1l0.4-3.9l2,4c0,0,0,0.1,0.1,0.1c0,0.1,0.1,0.1,0.1,0.2l2.6,2.5
		l0.3,2.1l-0.5,3.7c-0.1,0.4,0.3,0.8,0.7,0.8c0.4,0,0.7-0.3,0.7-0.6l0.4-2.4l0.4,2.4c0.1,0.4,0.4,0.6,0.7,0.6c0.4,0,0.8-0.4,0.7-0.8
		l-0.5-3.7l0.3-2.1l2.6-2.5l0,0l3.4-3.9l-1.3,6l1.9,0L53.5,72c0,0.5,0.4,1,0.9,1c0.5,0,0.9-0.4,0.9-0.8l0.5-5.6l0.5,5.6
		c0,0.5,0.4,0.8,0.9,0.8h0c0.5,0,0.9-0.4,0.9-1L58,65.9l1.9,0l-1.4-6.1l3.1,3.6c0.3,0.3,0.8,0.3,1.2,0.1c0.4-0.3,0.5-0.9,0.2-1.3
		L58.7,56.6z"/>
	<path class="st1" d="M45.3,63.6c0.8,0,1.5-0.7,1.5-1.5c0-0.8-0.7-1.5-1.5-1.5c-0.8,0-1.5,0.7-1.5,1.5
		C43.8,62.9,44.5,63.6,45.3,63.6z"/>
</g>
</svg>
