<?xml version="1.0" encoding="utf-8"?>
<!-- Generator: Adobe Illustrator 25.1.0, SVG Export Plug-In . SVG Version: 6.00 Build 0)  -->
<svg version="1.1" id="Layer_1" xmlns="http://www.w3.org/2000/svg" xmlns:xlink="http://www.w3.org/1999/xlink" x="0px" y="0px"
	 viewBox="0 0 100 100" style="enable-background:new 0 0 100 100;" xml:space="preserve">
<style type="text/css">
	.st0{fill:#010101;}
</style>
<path class="st0" d="M79.2,53.8c-0.1,0-0.3,0-0.4-0.1L35.4,34.8L13.1,53.2c-0.4,0.3-0.9,0.3-1.3-0.1L5,46.4
	c-0.2-0.2-0.3-0.4-0.3-0.7c0-0.3,0.1-0.5,0.3-0.7L32,21c0.3-0.3,0.7-0.3,1.1-0.1c0,0,0.1,0,0.1,0l51.1,22.7c0.2,0.1,0.4,0.3,0.5,0.6
	c0.1,0.3,0.1,0.5-0.1,0.8L80,53.3C79.9,53.7,79.5,53.8,79.2,53.8z M35.3,32.8c0.1,0,0.3,0,0.4,0.1l43.1,18.8l3.7-6.7L32.8,22.9
	L7.1,45.7l5.4,5.4L34.7,33C34.8,32.8,35.1,32.8,35.3,32.8z"/>
<path class="st0" d="M76.9,78.5H15.3c-0.5,0-1-0.4-1-1V50.6c0-0.5,0.4-1,1-1s1,0.4,1,1v26h59.6v-24c0-0.5,0.4-1,1-1c0.5,0,1,0.4,1,1
	v25C77.8,78.1,77.4,78.5,76.9,78.5z"/>
<path class="st0" d="M94.2,78.5H9.6c-0.5,0-1-0.4-1-1c0-0.5,0.4-1,1-1h84.6c0.5,0,1,0.4,1,1C95.2,78.1,94.7,78.5,94.2,78.5z"/>
<g>
	<path class="st0" d="M54.2,64.4l-3.6-7.2c-0.2-0.3-0.5-0.5-0.8-0.5l-7.5,0c-0.3,0-0.7,0.2-0.8,0.5L38,64.1
		c-0.3,0.5-0.1,1.2,0.4,1.6h0c0.6,0.4,1.5,0.2,1.8-0.4l2.4-4.6l0.5,4.7l-1.2,9.9c-0.1,0.9,0.6,1.8,1.6,1.8h0c0.8,0,1.5-0.6,1.6-1.4
		l1-7.9l0.9,7.9c0.1,0.8,0.8,1.4,1.6,1.4h0c0.9,0,1.7-0.8,1.6-1.8L49,65.4l0.5-4.7l2.5,4.8c0.3,0.6,1,0.8,1.6,0.6h0
		C54.3,65.8,54.5,65,54.2,64.4z"/>
	<circle class="st0" cx="46.1" cy="52.2" r="3.3"/>
</g>
</svg>
