<?xml version="1.0" encoding="utf-8"?>
<!-- Generator: Adobe Illustrator 25.1.0, SVG Export Plug-In . SVG Version: 6.00 Build 0)  -->
<svg version="1.1" id="Layer_1" xmlns="http://www.w3.org/2000/svg" xmlns:xlink="http://www.w3.org/1999/xlink" x="0px" y="0px"
	 viewBox="0 0 100 100" style="enable-background:new 0 0 100 100;" xml:space="preserve">
<style type="text/css">
	.st0{fill:#BA7EB6;}
	.st1{fill:#FFFFFF;}
</style>
<rect class="st0" width="100" height="100"/>
<g>
	<path class="st1" d="M94.2,76.6H77.8V53.3l1,0.4c0.1,0.1,0.3,0.1,0.4,0.1c0.3,0,0.7-0.2,0.8-0.5l4.7-8.4c0.1-0.2,0.2-0.5,0.1-0.8
		c-0.1-0.3-0.3-0.5-0.5-0.6L33.2,20.9c0,0-0.1,0-0.1,0c-0.3-0.2-0.8-0.1-1.1,0.1L5.1,45c-0.2,0.2-0.3,0.4-0.3,0.7
		c0,0.3,0.1,0.5,0.3,0.7l6.8,6.8c0.4,0.4,0.9,0.4,1.3,0.1l1.3-1v24.4H9.6c-0.5,0-1,0.4-1,1s0.4,1,1,1h5.8h61.5h17.3c0.5,0,1-0.4,1-1
		C95.2,77,94.7,76.6,94.2,76.6z M12.6,51.2l-5.4-5.4l25.7-22.9L82.5,45l-3.7,6.7L35.7,32.8c-0.1-0.1-0.3-0.1-0.4-0.1
		c-0.2,0-0.4,0.1-0.6,0.2L12.6,51.2z M44.6,76.6c0.3-0.2,0.5-0.6,0.5-1l1-7.9l0.9,7.9c0,0.4,0.2,0.7,0.5,1H44.6z M49.6,76.6
		c0.4-0.3,0.6-0.8,0.5-1.3L49,65.4l0.5-4.7l2.5,4.8c0.3,0.6,1,0.8,1.6,0.6c0.6-0.3,0.9-1,0.6-1.7l-3.6-7.2c-0.2-0.3-0.5-0.5-0.8-0.5
		l-7.5,0c-0.3,0-0.7,0.2-0.8,0.5L38,64.1c-0.3,0.5-0.1,1.2,0.4,1.6c0.6,0.4,1.5,0.2,1.8-0.4l2.4-4.6l0.5,4.7l-1.2,9.9
		c-0.1,0.5,0.2,1,0.5,1.4H16.3v-26c0,0,0,0,0,0l19.1-15.7l40.5,17.7c0,0,0,0,0,0v24H49.6z"/>
	<path class="st1" d="M46.1,48.9c-1.8,0-3.3,1.5-3.3,3.3s1.5,3.3,3.3,3.3s3.3-1.5,3.3-3.3S48,48.9,46.1,48.9z"/>
</g>
</svg>
