<?xml version="1.0" encoding="utf-8"?>
<!-- Generator: Adobe Illustrator 25.1.0, SVG Export Plug-In . SVG Version: 6.00 Build 0)  -->
<svg version="1.1" id="Layer_1" xmlns="http://www.w3.org/2000/svg" xmlns:xlink="http://www.w3.org/1999/xlink" x="0px" y="0px"
	 viewBox="0 0 100 100" style="enable-background:new 0 0 100 100;" xml:space="preserve">
<style type="text/css">
	.st0{fill:#010101;}
</style>
<path class="st0" d="M94.1,70h-3.5V56.5l0.1,0c0.1,0.1,0.3,0.1,0.4,0.1c0.4,0,0.7-0.2,0.8-0.5l2.9-5.2c0.1-0.2,0.2-0.5,0.1-0.8
	s-0.3-0.5-0.5-0.6L63.2,35.6c0.3-0.2,0.5-0.5,0.5-0.9V22l9.5-2.5c0.6-0.2,1-0.8,0.8-1.4c-0.2-0.6-0.8-1-1.4-0.8l-35.9,9.4
	c0,0,0,0,0,0c-0.2-2.1-1.9-3.8-4-3.8h-1.2c0.1-0.3,0.1-0.6-0.1-0.9l-3.5-5.6c-0.4-0.6-1.5-0.6-1.9,0l-3.5,5.6
	c-0.2,0.3-0.2,0.6-0.1,0.9c-2.2,0-4,1.8-4,4.1v4.6c-0.1,0-0.1,0-0.2,0L5.4,35c-0.6,0.2-1,0.8-0.8,1.4c0.1,0.5,0.6,0.8,1.1,0.8
	c0.1,0,0.2,0,0.3,0l12.2-3.2c0.2,1.3,1.1,2.4,2.3,3v45.8c0,0.6,0.5,1.1,1.1,1.1c0,0,0.1,0,0.1,0c0,0,0,0,0.1,0l9.3,0
	c0.1,0,0.2,0,0.3-0.1c0.1,0,0.2,0.1,0.3,0.1c0.6,0,1.1-0.5,1.1-1.1V37.3c2.2-0.1,3.9-1.9,3.9-4.1v-4.4c0.1,0,0.2,0.1,0.3,0.1
	c0.1,0,0.2,0,0.3,0l24.2-6.3v12.1c0,0.2,0.1,0.5,0.2,0.6c-0.1,0-0.1,0-0.2,0.1L44.6,50.4c-0.2,0.2-0.3,0.4-0.3,0.7
	c0,0.3,0.1,0.5,0.3,0.7l4.2,4.2c0.4,0.3,0.9,0.4,1.3,0.1l0.2-0.2V70h-2.7c-0.5,0-0.9,0.4-0.9,1s0.4,1,0.9,1h3.7h38.4h4.4
	c0.5,0,0.9-0.4,0.9-1S94.6,70,94.1,70z M26.7,19.2l2.4,3.8h-4.8L26.7,19.2z M22.7,48.1L30,55l-7.3,6.9V48.1z M22.7,66.6l7.3,6.9
	l-7.3,6.9V66.6z M23.4,64.2l7.1-6.7v13.3L23.4,64.2z M23.4,45.7l7.1-6.7v13.3L23.4,45.7z M22.7,43.3v-6h6.4L22.7,43.3z M30.5,76.1
	v5.6l-5.9,0L30.5,76.1z M34.4,33.3c0,1-0.8,1.8-1.8,1.8h-1c0,0,0,0,0,0c0,0,0,0,0,0h-9.4c-1,0-1.8-0.8-1.8-1.8v-6.2
	c0-1,0.8-1.8,1.8-1.8h10.4c1,0,1.8,0.8,1.8,1.8V33.3z M52.3,54.4l11.6-9.6l24.8,10.8V70H52.3V54.4z M63.7,42.7
	c-0.2,0-0.4,0.1-0.6,0.2L49.6,54l-2.9-2.9l15.6-13.8l30.4,13.5l-2,3.5L64.1,42.8C64,42.7,63.9,42.7,63.7,42.7z"/>
</svg>
