<?xml version="1.0" encoding="utf-8"?>
<!-- Generator: Adobe Illustrator 25.1.0, SVG Export Plug-In . SVG Version: 6.00 Build 0)  -->
<svg version="1.1" id="Layer_1" xmlns="http://www.w3.org/2000/svg" xmlns:xlink="http://www.w3.org/1999/xlink" x="0px" y="0px"
	 viewBox="0 0 100 100" style="enable-background:new 0 0 100 100;" xml:space="preserve">
<style type="text/css">
	.st0{fill:#010101;}
</style>
<g>
	<path class="st0" d="M94.2,76H77.9V52.8l1,0.4c0.1,0.1,0.3,0.1,0.4,0.1c0.3,0,0.7-0.2,0.8-0.5l4.7-8.3c0.1-0.2,0.2-0.5,0.1-0.8
		c-0.1-0.3-0.3-0.5-0.5-0.6L33.2,20.4c0,0-0.1,0-0.1,0c-0.3-0.2-0.8-0.1-1.1,0.1L5.2,44.4c-0.2,0.2-0.3,0.4-0.3,0.7
		c0,0.3,0.1,0.5,0.3,0.7l6.8,6.8c0.3,0.3,0.9,0.4,1.3,0.1l1.3-1V76H9.7c-0.5,0-1,0.4-1,1c0,0.5,0.4,1,1,1h5.8h61.5h17.3
		c0.5,0,1-0.4,1-1C95.2,76.4,94.7,76,94.2,76z M12.6,50.6l-5.4-5.4l25.7-22.8l49.6,22.1l-3.7,6.7L35.7,32.3
		c-0.1-0.1-0.3-0.1-0.4-0.1c-0.2,0-0.4,0.1-0.6,0.2L12.6,50.6z M16.4,76V50c0,0,0,0,0,0l19.1-15.7l40.4,17.6c0,0,0,0,0,0v24H16.4z"
		/>
	<path class="st0" d="M60.9,50.5c-0.4-0.1-0.8-0.1-1.3-0.1H29.2c-1.9,0-3.5,2.2-3.5,5v9.5c0,2.6,1.4,4.7,3.1,4.9
		c0.2,0.1,0.4,0.1,0.7,0.1c0.2,0,0.4,0,0.6,0h30.4c1.9,0,3.5-2.2,3.5-5v-9.5C64,52.9,62.6,50.8,60.9,50.5z M29.2,68.7
		c-0.1,0-0.1,0-0.2,0c0,0,0,0-0.1,0l-1.1-2.5c0-0.2,0.5-0.9,1.8-1.5l8.6-3.8l5.3,2.1l-12.3,5.4c-0.5,0.2-0.9,0.3-1.3,0.4H29.2z
		 M60.5,51.7c0.1,0,0.1,0,0.2,0c0,0,0,0,0.1,0l1.1,2.5c0,0.2-0.5,0.9-1.8,1.5L52,59.2l-5.3-2.1l11.6-5.1c0.5-0.2,0.9-0.3,1.3-0.4
		H60.5z M45.2,62.2L40,60.1l5.2-2.3l5.3,2.1L45.2,62.2z M52.1,60.6l8.2,3.2c1.3,0.5,1.9,1.3,1.9,1.4l-1,2.5c-0.1,0.1-1,0.3-2.4-0.2
		l-11.9-4.7L52.1,60.6z M38.3,59.5l-8.7-3.4c-1.3-0.5-1.9-1.2-1.9-1.4l1-2.5c0.1-0.1,0.3-0.1,0.7-0.1c0.4,0,1,0.1,1.7,0.4l12.4,4.9
		L38.3,59.5z M45.1,56.5l-12.3-4.8h23.3L45.1,56.5z M27,64.9v-9.2c0.5,0.6,1.3,1.2,2.3,1.6l7.5,2.9l-7.5,3.3c-1,0.4-1.8,1.1-2.3,1.7
		C27,65.1,27,65,27,64.9z M45.3,63.5l13,5.1H33.6L45.3,63.5z M62.8,55.5v8.5c-0.5-0.5-1.3-1-2.1-1.3l-7-2.8l6.8-3
		c1-0.4,1.8-1.1,2.3-1.7C62.7,55.3,62.8,55.4,62.8,55.5z"/>
</g>
</svg>
