<?xml version="1.0" encoding="utf-8"?>
<!-- Generator: Adobe Illustrator 25.1.0, SVG Export Plug-In . SVG Version: 6.00 Build 0)  -->
<svg version="1.1" id="Layer_1" xmlns="http://www.w3.org/2000/svg" xmlns:xlink="http://www.w3.org/1999/xlink" x="0px" y="0px"
	 viewBox="0 0 100 100" style="enable-background:new 0 0 100 100;" xml:space="preserve">
<path d="M82.8,19.5c0,0,0-0.1-0.1-0.1c0,0-0.1,0-0.1,0C74.5,10.7,63,5.4,50.3,5.4C25.6,5.4,5.5,25.5,5.5,50.2
	c0,12.7,5.4,24.2,13.9,32.3c0,0,0,0.1,0.1,0.1c0,0,0.1,0,0.2,0.1c8,7.6,18.8,12.2,30.7,12.2c24.7,0,44.8-20.1,44.8-44.8
	C95.1,38.3,90.4,27.5,82.8,19.5z M7.2,50.2c0-23.7,19.3-43.1,43.1-43.1c12,0,22.8,4.9,30.6,12.9L63.3,37.5l-0.7-0.3
	c0.2-0.2,0.4-0.4,0.4-0.7v-9.7l7.3-1.9c0.5-0.1,0.7-0.6,0.6-1c-0.1-0.5-0.6-0.7-1-0.6l-27.5,7.2c0,0,0,0,0,0
	c-0.1-1.6-1.5-2.9-3.1-2.9h-1c0.1-0.2,0-0.5-0.1-0.7l-2.7-4.3c-0.3-0.5-1.1-0.5-1.4,0l-2.7,4.3c-0.1,0.2-0.2,0.5-0.1,0.7
	c-1.7,0-3.1,1.4-3.1,3.1v3.5c0,0-0.1,0-0.1,0l-9.6,2.5c-0.5,0.1-0.7,0.6-0.6,1c0.1,0.4,0.4,0.6,0.8,0.6c0.1,0,0.1,0,0.2,0l9.4-2.5
	c0.2,1,0.8,1.8,1.7,2.3V71l-9.8,9.8C12.1,73,7.2,62.1,7.2,50.2z M37.6,72.4l-4.5,0l4.5-4.3V72.4z M39.2,29.3c0.8,0,1.4,0.6,1.4,1.4
	v4.7c0,0.8-0.6,1.4-1.4,1.4h-0.7c0,0,0,0,0,0s0,0,0,0h-7.2c-0.8,0-1.4-0.6-1.4-1.4v-4.7c0-0.8,0.6-1.4,1.4-1.4H39.2z M32.9,27.6
	l1.8-2.9l1.8,2.9H32.9z M36.5,38.5l-4.9,4.6v-4.6H36.5z M31.6,46.8l5.6,5.2l-5.6,5.2V46.8z M32.2,45l5.4-5.1v10.2L32.2,45z M31.6,61
	l4.3,4l-4.3,4.3V61z M37.1,66.2L37.1,66.2l-2,2L37.1,66.2z M37.1,63.8l-4.9-4.6l5.4-5.1v9.2L37.1,63.8z M39.3,38.5
	c1.7-0.1,3-1.4,3-3.1v-3.3c0.1,0,0.1,0.1,0.2,0.1c0.1,0,0.1,0,0.2,0l18.5-4.8v9.3c0,0.2,0.1,0.4,0.2,0.5c0,0-0.1,0-0.2,0.1
	L48.4,48.5c-0.2,0.1-0.2,0.3-0.2,0.5c0,0.2,0.1,0.4,0.2,0.6l1.4,1.4L39.3,61.6V38.5z M54.2,51.6l8.9-7.3l19,8.3v11H54.2V51.6z
	 M62.6,42.8l-10.4,8.5l-0.1-0.1l11.8-11.8l21.3,9.5l-1.5,2.7l-20.4-8.9c-0.1,0-0.2-0.1-0.3-0.1C62.9,42.6,62.7,42.7,62.6,42.8z
	 M50.9,50L50,49.1l11.9-10.6l0.3,0.1L50.9,50z M50.3,93.2C39.1,93.2,29,88.9,21.3,82l8.6-8.6c0,0.4,0.4,0.8,0.8,0.8c0,0,0.1,0,0.1,0
	c0,0,0,0,0,0l7.1,0c0,0,0,0,0,0c0.1,0,0.1,0,0.2,0c0.1,0,0.1,0,0.2,0c0.5,0,0.9-0.4,0.9-0.9V64L51,52.3l0.6,0.6c0.3,0.3,0.7,0.3,1,0
	l0.1-0.1v10.8h-2.1c-0.4,0-0.7,0.3-0.7,0.7c0,0.4,0.3,0.7,0.7,0.7h2.8h29.4h3.4c0.4,0,0.7-0.3,0.7-0.7c0-0.4-0.3-0.7-0.7-0.7h-2.7
	V53.2l0.1,0c0.1,0,0.2,0.1,0.3,0.1c0.3,0,0.5-0.1,0.7-0.4l2.2-4c0.1-0.2,0.1-0.4,0.1-0.6c-0.1-0.2-0.2-0.4-0.4-0.4L65,38.3
	l17.1-17.1c7,7.7,11.3,17.8,11.3,28.9C93.4,73.9,74,93.2,50.3,93.2z"/>
</svg>
