<?xml version="1.0" encoding="utf-8"?>
<!-- Generator: Adobe Illustrator 25.1.0, SVG Export Plug-In . SVG Version: 6.00 Build 0)  -->
<svg version="1.1" id="Layer_1" xmlns="http://www.w3.org/2000/svg" xmlns:xlink="http://www.w3.org/1999/xlink" x="0px" y="0px"
	 viewBox="0 0 100 100" style="enable-background:new 0 0 100 100;" xml:space="preserve">
<style type="text/css">
	.st0{fill:#010101;}
</style>
<path class="st0" d="M38,52.9c-4.9-0.2-9.6-4.5-11.6-10.3c-1.5,0.2-2.9-0.9-3.2-2.5l-0.8-5.2c-0.2-1.4,0.5-2.6,1.8-3.2
	C24,31.1,24,30.6,24,30v-1.9c0-5.4,4.4-9.8,9.8-9.8h0.1c0.4-0.8,1.3-1.5,3.7-1.5c1.6,0,3.6,0.4,5.6,1.2c0.9,0.3,1.7,0.7,2.4,1.1
	c3.6,1.5,5.9,5,5.9,9V30c0,0.6-0.1,1.1-0.1,1.7c0.5,0.2,0.9,0.5,1.2,1c0.5,0.6,0.7,1.4,0.5,2.2l-0.8,5.2c-0.1,0.8-0.5,1.5-1.2,1.9
	c-0.5,0.4-1,0.5-1.6,0.6C47.5,48.4,42.8,52.7,38,52.9z M27.2,40c0.5,0,1,0.4,1.2,0.9c1.5,5.3,5.6,9.4,9.6,9.6c3.9-0.2,8-4.3,9.5-9.5
	c0.2-0.6,0.7-1,1.4-0.9l0.5,0.1c0.2,0,0.3,0,0.4-0.1c0.1,0,0.2-0.2,0.2-0.3l0.8-5.2c0-0.2,0-0.3-0.1-0.4c0-0.1-0.2-0.2-0.3-0.2
	l-0.6-0.1c-0.4-0.1-0.7-0.3-0.8-0.6c-0.2-0.3-0.2-0.7-0.1-1c0.2-0.7,0.4-1.5,0.4-2.2v-1.9c0-3-1.8-5.7-4.6-6.8
	c-0.7-0.4-1.5-0.7-2.2-1c-3.6-1.4-6-1.1-6.3-0.7c0,0.3-0.1,0.6-0.3,0.9c-0.2,0.2-0.5,0.3-0.9,0.3h-1c-4.1,0-7.4,3.3-7.4,7.4V30
	c0,0.8,0.1,1.5,0.3,2.2c0.1,0.3,0.1,0.7-0.1,1c-0.2,0.3-0.5,0.5-0.8,0.6l-0.6,0.1c-0.3,0-0.5,0.3-0.4,0.6l0.8,5.2
	c0,0.3,0.3,0.5,0.6,0.4L27,40C27.1,40,27.1,40,27.2,40z"/>
<path class="st0" d="M58.1,77.9h-9.3c-0.7,0-1.2-0.5-1.2-1.2s0.5-1.2,1.2-1.2h9.3c0.7,0,1.2,0.5,1.2,1.2S58.8,77.9,58.1,77.9z"/>
<path class="st0" d="M32.9,83.1c-0.6,0-1.1-0.4-1.2-1l-5.2-24.4c-4.2,2-12.4,3.7-14.1,4.1c-1.9,0.4-5.1,1.8-5.1,4.5v1.5l1.5,13.9
	C8.9,82.4,8.4,83,7.7,83c-0.7,0-1.3-0.4-1.3-1.1L4.9,68l0-1.6c0-3.8,3.5-6.2,7.1-6.9c4.3-0.9,12.1-2.8,14.6-4.5
	c0.2-0.1,0.3-0.2,0.5-0.2c0.7-0.1,1.4,0.3,1.6,0.9l4.3,20.1L35,64.9l-2.7-6.9c-0.1-0.4-0.1-0.8,0.1-1.1c0.2-0.3,0.6-0.5,1-0.5h9.1
	c0.4,0,0.8,0.2,1,0.5c0.2,0.3,0.3,0.8,0.1,1.1l-2.7,6.9L43,75.8l4.4-20.1c0.1-0.6,0.7-1,1.4-0.9c0.2,0,0.5,0.1,0.7,0.2
	c2.5,1.7,10.3,3.6,14.6,4.5c3.5,0.7,7.1,3.1,7.1,6.9v1.5L69.5,82c-0.1,0.7-0.7,1.1-1.3,1.1c-0.7-0.1-1.1-0.7-1.1-1.3l1.5-14l0-1.3
	c0-2.8-3.2-4.2-5.1-4.5c-1.8-0.4-10-2.1-14.1-4.1l-5.3,24.4c-0.1,0.6-0.7,0.8-1.2,1c-0.6,0-1.1-0.4-1.2-1L38.5,65
	c0-0.2,0-0.5,0.1-0.7l2.2-5.6h-5.5l2.2,5.6c0.1,0.2,0.1,0.4,0.1,0.7l-3.3,17.1C34,82.7,33.5,83.1,32.9,83.1
	C32.9,83.1,32.9,83.1,32.9,83.1z"/>
<path class="st0" d="M91.5,35.3c-1.4-1.4-3.2-2.2-5-2.9c-1.1-0.4-3.3-0.5-3.6-0.5c-6.2,0.2-11.4,5.3-11.6,11.5
	c-0.2,4.9,2.7,9.3,7.1,11.3v27.2h5.1l4.4-2.9v-8.4l-1.6-1.2l1.6-1.2v-3.6l-1.6-1.2l1.6-1.2v-7.6c4.3-1.9,7.1-6.2,7.1-10.9
	C95.2,40.5,93.9,37.5,91.5,35.3z M86.4,52.8L85.6,53v8l-3.2,2.4l3.2,2.4V67l-3.2,2.4l3.2,2.4v5.9l-2.7,1.8h-2V53l-0.8-0.3
	c-3.9-1.4-6.5-5.1-6.3-9.3c0.2-4.9,4.3-9.1,9.2-9.2c0.5,0,1.6,0,3.7,0.6c1.2,0.5,2.2,1.1,3.2,2c1.9,1.8,2.9,4.2,2.9,6.8
	C92.8,47.8,90.2,51.4,86.4,52.8z"/>
<path class="st0" d="M83.2,46.3c-2.3,0-4.1-1.8-4.1-4.1c0-2.3,1.8-4.1,4.1-4.1c2.3,0,4.1,1.8,4.1,4.1C87.4,44.5,85.5,46.3,83.2,46.3
	z M83.2,39.7c-1.4,0-2.5,1.1-2.5,2.5c0,1.4,1.1,2.5,2.5,2.5c1.4,0,2.5-1.1,2.5-2.5C85.7,40.8,84.6,39.7,83.2,39.7z"/>
</svg>
