<?xml version="1.0" encoding="utf-8"?>
<!-- Generator: Adobe Illustrator 25.1.0, SVG Export Plug-In . SVG Version: 6.00 Build 0)  -->
<svg version="1.1" id="Layer_1" xmlns="http://www.w3.org/2000/svg" xmlns:xlink="http://www.w3.org/1999/xlink" x="0px" y="0px"
	 viewBox="0 0 100 100" style="enable-background:new 0 0 100 100;" xml:space="preserve">
<style type="text/css">
	.st0{fill:#010101;}
</style>
<path class="st0" d="M94.2,78.1H78.9V56.3l0.9,0.4c0.1,0.1,0.2,0.1,0.4,0.1c0.3,0,0.6-0.2,0.8-0.5l4.4-7.9c0.1-0.2,0.1-0.5,0.1-0.7
	c-0.1-0.2-0.3-0.4-0.5-0.5l-48-21.4c0,0-0.3-0.1-0.3-0.2c0,0.3,0,0.6,0,0.8c-0.2-0.3-0.5-0.7-0.7-1l2.9-4.9c0.3-0.6,0.1-1.3-0.4-1.6
	c-0.6-0.3-1.3-0.1-1.6,0.4l-2.6,4.4c-3.1-2.9-7.2-4.6-11.8-4.6C12.8,19.1,5,26.8,5,36.4c0,8.5,6.1,15.6,14.2,17
	c0,0.1-0.1,0.2-0.1,0.3v24.4h-4.5c-0.5,0-0.9,0.4-0.9,0.9c0,0.5,0.4,0.9,0.9,0.9h5.4H78h16.3c0.5,0,0.9-0.4,0.9-0.9
	C95.2,78.5,94.7,78.1,94.2,78.1z M83.3,48.4l-3.5,6.3L39.6,37.2c0-0.3,0-0.6,0-0.8c0-3-0.8-5.8-2.1-8.3L83.3,48.4z M6.8,36.4
	c0-8.6,7-15.6,15.6-15.6c4.2,0,8.1,1.7,10.9,4.4L22.4,43.8l-9-12c-0.4-0.5-1.1-0.6-1.6-0.2c-0.5,0.4-0.6,1.1-0.2,1.6l10.1,13.4
	c0.2,0.3,0.6,0.5,0.9,0.5c0,0,0,0,0.1,0c0.4,0,0.7-0.2,0.9-0.6l11.3-19.3c1.9,2.6,3.1,5.8,3.1,9.3c0,8.6-7,15.6-15.6,15.6
	C13.8,51.9,6.8,45,6.8,36.4z M21,78.1V53.7c0,0,0-0.1,0-0.1c0.5,0,0.9,0.1,1.4,0.1c8.6,0,15.8-6.3,17.1-14.6l37.6,16.4c0,0,0,0,0,0
	v22.6H21z"/>
</svg>
