<?xml version="1.0" encoding="utf-8"?>
<!-- Generator: Adobe Illustrator 24.2.3, SVG Export Plug-In . SVG Version: 6.00 Build 0)  -->
<svg version="1.1" id="Layer_1" xmlns="http://www.w3.org/2000/svg" xmlns:xlink="http://www.w3.org/1999/xlink" x="0px" y="0px"
	 viewBox="0 0 1000 1000" style="enable-background:new 0 0 1000 1000;" xml:space="preserve">
<style type="text/css">
	.st0{fill:#167879;}
	.st1{display:none;}
	.st2{display:inline;fill:#010101;}
	.st3{font-family:'Mont-HeavyDEMO';}
	.st4{font-size:304.7976px;}
	.st5{display:inline;}
	.st6{fill:#010101;}
</style>
<g id="Layer_1_1_">
	<path class="st0" d="M776.2,913.6h-545c-21,0-38-17-38-38V117.4c0-21,17-38,38-38s38,17,38,38v720.1h468.9V539.9c0-21,17-38,38-38
		s38,17,38,38v335.6C814.2,896.5,797.2,913.6,776.2,913.6z"/>
	<path class="st0" d="M604.3,732.6H403c-21,0-38-17-38-38V493.2c0-21,17-38,38-38h201.3c21,0,38,17,38,38v201.3
		C642.3,715.5,625.3,732.6,604.3,732.6z M441,656.5h125.2V531.3H441V656.5z"/>
	<path class="st0" d="M909.6,516.8c-8.2,0-16.3-2.9-23.1-9.1c-5.1-4.6-9.7-11.3-12.3-18.3L500,155.3L128.1,487.4
		c-2,6.5-5.7,12.4-10.8,17c-15.7,13.9-41.5,14.5-55.6-1.1c-5.6-6.2-9.1-13.5-10.2-21c-1.1-3.9-1.5-8.1-1.3-12.2
		c0.5-10.2,5.1-19.7,12.7-26.4L471,79.1c10.1-9,23.7-11.8,35.9-8.2c8.2,0.3,16.1,2.8,22.1,8.2l408.3,364.6
		c7.6,6.8,12.1,16.3,12.6,26.4c0.4,6.5-1,13-3.8,18.7c-1.4,5.2-3.9,10.2-7.7,14.4C930.5,512,920,516.8,909.6,516.8z"/>
</g>
<g id="Layer_5" class="st1">
	<path class="st2" d="M776.2,913.6h-545c-21,0-38-17-38-38V117.4c0-21,17-38,38-38s38,17,38,38v720.1h468.9V539.9c0-21,17-38,38-38
		s38,17,38,38v335.6C814.2,896.5,797.2,913.6,776.2,913.6z"/>
	<path class="st2" d="M909.6,516.8c-8.2,0-16.3-2.9-23.1-9.1c-5.1-4.6-9.7-11.3-12.3-18.3L500,155.3L128.1,487.4
		c-2,6.5-5.7,12.4-10.8,17c-15.7,13.9-41.5,14.5-55.6-1.1c-5.6-6.2-9.1-13.5-10.2-21c-1.1-3.9-1.5-8.1-1.3-12.2
		c0.5-10.2,5.1-19.7,12.7-26.4L471,79.1c10.1-9,23.7-11.8,35.9-8.2c8.2,0.3,16.1,2.8,22.1,8.2l408.3,364.6
		c7.6,6.8,12.1,16.3,12.6,26.4c0.4,6.5-1,13-3.8,18.7c-1.4,5.2-3.9,10.2-7.7,14.4C930.5,512,920,516.8,909.6,516.8z"/>
</g>
<g id="Layer_2_1_" class="st1">
	<path class="st2" d="M814.2,717.6V539.9c0-21-17-38-38-38s-38,17-38,38v177.7L814.2,717.6L814.2,717.6z"/>
	<path class="st2" d="M269.2,717.6V117.4c0-21-17-38-38-38s-38,17-38,38v600.2L269.2,717.6L269.2,717.6z"/>
	<path class="st2" d="M909.6,516.8c-8.2,0-16.3-2.9-23.1-9.1c-5.1-4.6-9.7-11.3-12.3-18.3L500,155.3L128.1,487.4
		c-2,6.5-5.7,12.4-10.8,17c-15.7,13.9-41.5,14.5-55.6-1.1c-5.6-6.2-9.1-13.5-10.2-21c-1.1-3.9-1.5-8.1-1.3-12.2
		c0.5-10.2,5.1-19.7,12.7-26.4L471,79.1c10.1-9,23.7-11.8,35.9-8.2c8.2,0.3,16.1,2.8,22.1,8.2l408.3,364.6
		c7.6,6.8,12.1,16.3,12.6,26.4c0.4,6.5-1,13-3.8,18.7c-1.4,5.2-3.9,10.2-7.7,14.4C930.5,512,920,516.8,909.6,516.8z"/>
	<text transform="matrix(1 0 0 1 121.7576 943.6953)" class="st2 st3 st4">RENT</text>
</g>
<g id="Layer_3" class="st1">
	<g class="st5">
		<path class="st6" d="M685.6,715.3c50.2,0,91.1-40.8,91.1-91.1c0-50.2-40.8-91-91.1-91s-91.1,40.8-91.1,91S635.4,715.3,685.6,715.3
			z M685.6,572.4c28.6,0,51.8,23.3,51.8,51.8c0,28.6-23.3,51.8-51.8,51.8c-28.6,0-51.8-23.3-51.8-51.8
			C633.8,595.6,657,572.4,685.6,572.4z"/>
		<path class="st6" d="M904.5,859.8l-70.2-134c-2.5-4.7-6.6-7.9-11.3-9.5c20.3-27.9,32.2-62.3,32.2-99.3
			c0-80.6-56.6-148.2-132.1-165.3v-3.8c0-17.8-14.5-32.3-32.3-32.3s-32.3,14.5-32.3,32.3v1.8c-80.7,13-142.5,83.1-142.5,167.4
			c0,31.1,8.4,60.3,23.1,85.4H260.6v-404l195.9-174.9L773.9,407c2.2,6,6.1,11.6,10.4,15.6c5.8,5.2,12.7,7.7,19.6,7.7
			c8.8,0,17.7-4.1,24.4-11.5c3.2-3.6,5.4-7.8,6.6-12.2c2.4-4.9,3.5-10.4,3.2-15.9c-0.4-8.6-4.3-16.7-10.7-22.4L481.1,58.8
			c-5.1-4.5-11.8-6.7-18.8-6.9c-10.4-3.1-21.9-0.7-30.5,6.9L260.6,211.7V91.3c0-17.8-14.5-32.3-32.3-32.3
			C210.5,59,196,73.4,196,91.3v178.1L85.4,368.2c-6.4,5.7-10.3,13.8-10.8,22.4c-0.2,3.5,0.2,7,1.1,10.3c1,6.3,3.9,12.5,8.7,17.8
			c12,13.2,33.9,12.8,47.2,1c4.3-3.9,7.5-8.9,9.2-14.5L196,356v378.6c0,17.8,14.5,32.3,32.3,32.3h289.2L466.9,859
			c-2.6,4.7-3.1,10.3-1.5,15.4c1.6,5.1,5.3,9.4,10.1,11.7L606.6,950c2.8,1.3,5.7,2,8.6,2c6.5,0,12.8-3.2,16.5-9l53-82.4l53,82.4
			c5.4,8.3,16.1,11.3,25,7.1l132.9-63.5c4.8-2.3,8.5-6.4,10.2-11.5S906.9,864.5,904.5,859.8z M685.6,486.6
			c71.9,0,130.3,58.4,130.3,130.3s-58.5,130.3-130.3,130.3s-130.3-58.5-130.3-130.3S613.8,486.6,685.6,486.6z M761.3,907.2
			l-60.1-93.6c-7.2-11.2-25.8-11.2-33,0l-60,93.4l-96.9-47.2l51.1-92.9h44.2c23.6,12.5,50.5,19.6,79.1,19.6
			c43.5,0,83.3-16.5,113.4-43.6c0.2,0.3,0.3,0.7,0.5,1l60.8,116L761.3,907.2z"/>
	</g>
</g>
<g id="Layer_4" class="st1">
	<path class="st2" d="M917.7,802.5c-0.7-3.8-3.6-10.9-14.1-33.7c-1.3-2.9-2.7-5.9-3.1-6.9c-0.2-0.5-0.4-1-0.6-1.5
		c-64.3-136.8-99.2-208.2-123.7-244.2c-12.6-18.5-23.3-28.6-33.9-34.2v-21.6c0-18.4-14.9-33.2-33.2-33.2
		c-18.4,0-33.2,14.9-33.2,33.2v19.7c-31.9,11.3-49.1,41.3-64.8,74c-38.2,76.3-64.1,129.4-81.7,166.3H266v-416l201.7-180.1
		l326.9,291.9c2.3,6.1,6.3,12,10.7,16c6,5.4,13.1,7.9,20.2,7.9c9.1,0,18.3-4.2,25.2-11.8c3.3-3.7,5.5-8,6.8-12.6
		c2.5-5.1,3.7-10.7,3.3-16.4c-0.5-8.9-4.4-17.2-11.1-23.1L493,57.8c-5.2-4.6-12.1-6.9-19.3-7.1c-10.7-3.2-22.6-0.7-31.4,7.1
		L266,215.3v-124c0-18.4-14.9-33.2-33.2-33.2c-18.4,0-33.2,14.9-33.2,33.2v183.4L85.7,376.3c-6.6,5.9-10.6,14.2-11.1,23.1
		c-0.2,3.6,0.2,7.2,1.2,10.6c1,6.5,4,12.9,9,18.3c12.3,13.6,34.9,13.2,48.6,1c4.5-4.1,7.7-9.2,9.5-14.9l56.8-50.7v389.8
		c0,18.4,14.9,33.2,33.2,33.2h265.6c-3.9,9.1-5.4,13.1-6,14.7c-12.5,34.3-8.2,70.2,11.6,98.5c20,28.6,52.8,45.6,87.9,45.6
		c37.8,0,74.8-19.1,113-58.2c23.2,23.7,46.6,40.4,69.5,49.7c20.2,8.2,34.9,8.5,41.8,8.5c0.3,0,0.6,0,0.9,0h0.7h0.1
		c35,0,67.8-17,87.8-45.5C925.4,872,929.7,836.5,917.7,802.5z M704.9,812.1c-19.5-26.1-31.4-49.4-35.6-69.5c0-0.2-0.1-0.3-0.1-0.4
		c-5.4-21-1-37.7,12.4-47.1c6.6-4.6,14.9-6.9,23.3-6.9c8.3,0,16.6,2.3,23.3,6.9c13.4,9.3,17.8,26,12.4,47.1c0,0.1,0,0.2-0.1,0.3
		C735.9,762.9,724,786.3,704.9,812.1z M839.9,892.8L839.9,892.8c-30.1,13.1-63.9-0.7-103.1-42.2c25.3-32.9,41.9-63.9,49.5-92.3
		c7.3-27.3,6-52.4-3.7-72.5c-13.5-28.2-43.3-45.6-77.7-45.6c-27.5,0-51.3,10.8-67,30.3c-17.2,21.4-23.2,51.6-16.3,82.8
		c0,0.1,0,0.1,0,0.2c6.8,28.6,24.1,61.3,51.4,97.2c-27,28.5-51.8,44-73.6,45.9c-0.2,0-0.4,0-0.6,0.1c-19.7,2.9-39-4.4-51.5-19.6
		c-13.2-16.1-16.8-38-9.4-58.7c10.2-26.4,57.4-122.2,88.7-185.7c16.9-34.4,25.5-51.8,27.5-56.4c1.6-3.2,3.2-6.3,4.8-9.3
		c14.2-28.1,22.8-42.7,46-42.7c23.6,0,32.6,16,49.1,49.3c0.9,1.8,1.8,3.6,2.7,5.5c31.7,62.1,88.7,175.8,115.1,239.6
		C883.5,848,869.8,879.9,839.9,892.8z"/>
</g>
<g id="Layer_6" class="st1">
	<path class="st2" d="M914.4,53.3h-834c-17.6,0-31.9,14.3-31.9,31.9v621.1c0,17.6,14.3,31.9,31.9,31.9h384c1.4,0,2.8-0.1,4.1-0.3
		c8.9,0,16.7-2.5,23-8.1c6.8-6.1,10.8-14.7,10.8-23.8v-97.5c0-17.6-14.3-31.9-31.9-31.9s-31.9,14.3-31.9,31.9v65.7h-326v-244h81.8
		c17.6,0,31.9-14.3,31.9-31.9s-14.3-31.9-31.9-31.9h-81.8V117.2h326v75c0,17.6,14.3,31.9,31.9,31.9s31.9-14.3,31.9-31.9v-75h380.2
		V283H470.3c-17.6,0-31.9,14.3-31.9,31.9v51.5H330.1c-17.6,0-31.9,14.3-31.9,31.9s14.3,31.9,31.9,31.9h108.3v44.3
		c0,17.6,14.3,31.9,31.9,31.9s31.9-14.3,31.9-31.9V346.8h380.2v327.3H607.6c-0.2,0-0.6,0-1.1,0.1c-8.5-1.9-18,0-25.6,5.5
		c-8.5,6-13.5,15.6-13.5,25.6v178.9h-455V847c0-17.6-14.3-31.9-31.9-31.9s-32,14.3-32,31.9v69.1c0,17.6,14.3,31.9,31.9,31.9
		l515.7-0.1c0.4,0.1,2.7,0.2,3.1,0.2c17.6,0,31.9-14.3,31.9-31.9V738h283.3c17.6,0,31.9-14.3,31.9-31.9V85.2
		C946.3,67.6,932,53.3,914.4,53.3z"/>
</g>
<g id="Layer_7" class="st1">
	<g class="st5">
		<path class="st6" d="M800.6,612.6c-64.3,0-118.6,41.5-138.9,98.9l-147.8-28l-133.2,84.8l-59.3-297.9l-89.6-14.2
			c-0.1-22.4-15.9-42-38.6-45.1l-86.6-11.9c-25-3.3-47.9,14.1-51.4,39L52,461.8c-1.7,12.1,1.5,24.1,8.9,33.8
			c7.4,9.7,18.1,15.9,30.1,17.6l86.7,11.9c2.1,0.3,4.1,0.4,6.1,0.4c15.8,0,30-8.5,38.2-21.4l58.3,9.2l53.4,267.8
			c0.8,7.8,3.7,15.2,8.3,21.4c7,9.4,17.2,15.6,28.8,17.3c2.2,0.3,4.4,0.5,6.6,0.5c9.3,0,18-2.8,24.4-7.7l122-77.6l129,24.5
			c0,0.3-0.1,0.6-0.1,1c0,81.6,66.4,147.9,147.9,147.9S948.5,842,948.5,760.5S882.1,612.6,800.6,612.6z M180.9,476.3l-80.2-11
			l2.3-17.2l80.2,11L180.9,476.3z M800.6,859.6c-51.8,0-93.9-40-98.3-90.7l89.3,16.9l9.1-48L710,720.6
			c15.4-34.9,50.1-59.3,90.6-59.3c54.7,0,99.1,44.5,99.1,99.1C899.7,815.1,855.2,859.6,800.6,859.6z"/>
		<path class="st6" d="M404.3,635.8L648.1,673c2,0.3,4,0.5,5.8,0.5c20.4,0,30-17.6,33.9-24.6c0.9-1.6,1.7-3.2,2.7-4.6l202.3-276.5
			c8.9-12.2,10.6-27.5,4.4-39.7c-5.8-11.4-17.3-18.2-30.7-18.2h-26.6c-0.7-1-1.1-2.1-1.9-3.1L649.4,108.5
			c-9.5-9.9-22.4-15.6-36.2-15.9c-13.6-0.1-26.9,4.8-36.9,14.4L379.6,297.2c-3.7,3.5-5.6,8-6.8,12.6h-2.2c-12.9,0-25.6,5.8-34,15.6
			c-7.6,8.9-11,20.5-9.2,31.7l37.3,239.1C367.9,617,383.4,632.6,404.3,635.8z M651.1,615.4c-1.8,2.5-3.5,5.2-5,8L413,588.8
			l-35.8-230.2H839L651.1,615.4z M611.1,145l156.8,164.8H442.4L611.1,145z"/>
	</g>
</g>
<g id="Layer_8" class="st1">
	<path class="st2" d="M931.7,518.8c10.1,0,18.3-8.2,18.3-18.3V306c0-10.1-8.2-18.3-18.3-18.3H702.8V111.5c0-10.1-8.2-18.3-18.3-18.3
		h-616c-10.1,0-18.3,8.2-18.3,18.3V306v194.5V695v194.5c0,10.1,8.2,18.3,18.3,18.3h863.1c10.1,0,18.3-8.2,18.3-18.3V695
		c0-10.1-8.2-18.3-18.3-18.3H702.8v-158L931.7,518.8L931.7,518.8z M913.4,482.2H684.5h-79.1v-158h79.1h228.9V482.2z M253.5,482.2
		v-158h315.4v158H253.5z M568.9,713.3v158H253.5v-158H568.9z M86.8,676.8v-158h271.5v158H86.8z M86.8,482.2v-158H217v158H86.8z
		 M666.3,287.7H394.8v-158h271.4v158H666.3z M86.8,129.7h271.5v158H86.8V129.7z M86.8,713.3H217v158H86.8V713.3z M913.4,871.3h-308
		v-158h79.1h228.9V871.3z M666.3,676.8H394.8v-158h271.4v158H666.3z"/>
</g>
<g id="Layer_9" class="st1">
	<g class="st5">
		<path class="st6" d="M617.1,218.2c-0.3,0-0.5-0.1-0.7-0.1c-9.6,0-19,3-28,7.4c-5.5-36.9-33.8-54.8-61.3-54.8c-0.1,0-0.2,0-0.3,0
			c-29.9,0.1-60.5,18.6-68,50c-7.8-3.2-16.1-5.1-24.2-5.1c-0.3,0-0.6,0-0.9,0.1c-33.2,0.4-67.4,24.9-67.3,65v5.1
			c-18.5-6.3-39.8-4.8-57.4,5.4c-21.8,12.6-34.2,35.3-34.2,62.4l0.3,146.4l6.4,183.3c2,57.5,51.3,105.1,131.9,127.3
			c29.5,8.1,62,12.5,94.4,12.5c72.2,0,143.1-21.8,175.8-72.7l140.2-174.3c9.8-14.7,13-32.3,9.1-49.4c-3.9-17.5-14.8-32.4-30.6-41.8
			c-3.3-1.9-7-2.4-10.6-2.8c-46.2,0.6-78.1,11.1-94.8,31.4l-13.4,16.2l0.9-246.2C684.7,242.9,650.4,218.5,617.1,218.2z M527,211.1
			c8.6,1.6,23.1,4.4,23.2,25.8l1,184.8v2.7c0,1.2,0.4,2.2,0.6,3.4c-18.3-2.2-36.2-2.9-53.7-2.9l-0.4-143.6v-0.1v-0.1l-0.1-45.6
			C497.5,218.7,514.7,211.1,527,211.1z M434.3,256c0.1,0,0.3,0,0.4,0c8.4,0,21.9,3.5,22.5,26.2l0.4,144.1c-17,1.6-33.7,4-50.1,7.7
			l0.1-89c0-1.6-0.4-3.1-0.5-4.7l-0.2-59.9C406.9,263.8,422.9,256.1,434.3,256z M728.2,538.9c3.8-4.6,16.8-15,57.7-16.5
			c3.9,3.5,6.6,7.9,7.7,13c1.4,6.2,0.3,12.7-2.3,16.6L651,726.5c-36.2,56.3-145.9,67.2-226.7,44.9c-62.7-17.3-100.9-50.8-102.3-89.7
			L315.6,499l-0.3-145.7c-0.1-15.9,7.6-23.6,14-27.4c8.6-5.1,20.2-5.4,28.1-0.8c5.8,3.3,8.6,9.3,9.2,17.1v3.9c0,0.9,0.4,1.7,0.5,2.5
			l-0.1,98c-8.1,2.8-16.4,4.7-24.3,8.1c-10.3,4.4-15,16.2-10.6,26.5c3.3,7.7,10.7,12.3,18.6,12.3c2.6,0,5.3-0.5,7.9-1.6
			c71.5-30.4,149.3-35.9,237.7-16.5c10.8,2.4,21.7-4.5,24.1-15.4c2.4-10.9-4.5-21.7-15.4-24.1c-5.4-1.2-10.4-1.4-15.8-2.4
			c1.4-2.6,2.3-5.4,2.3-8.4l2.6-140.5c0.4-21.5,12.2-26.2,22.1-26.2c0.1,0,0.2,0.1,0.4,0.1c11.4,0.1,27.5,7.8,27.5,24.5l-1,284.6
			c-75.9,8.7-125.5,41.7-146.7,98.9c-3.9,10.5,1.4,22.1,11.9,26c2.3,0.8,4.7,1.3,7.1,1.3c8.2,0,15.9-5.1,18.9-13.2
			c17.2-46.2,59.7-70.5,130.1-74.6c0.9-0.1,1.7-0.5,2.6-0.7c0.9-0.2,1.7-0.4,2.6-0.7c3.5-1.2,6.6-3.1,9-5.8c0.1-0.1,0.1-0.1,0.2-0.1
			L728.2,538.9z"/>
		<path class="st6" d="M940.2,308.9l-242-246.4c-5-5.1-11.8-8-18.9-8.1L334,51.3c-5.8,1-14,2.7-19.2,7.7L68.4,301
			c-5.1,5-8,11.8-8.1,18.9l-3.1,345.3c-0.1,7.2,2.7,14.1,7.7,19.2l242,246.4c5,5.1,11.8,8,18.9,8.1l345.4,3.2c0.1,0,0.2,0,0.3,0
			c7.1,0,13.8-2.8,18.9-7.7l246.4-242c5.1-5,8-11.8,8.1-18.9l3.1-345.3C948,320.9,945.2,314,940.2,308.9z M891.1,661.7L660.6,888.1
			l-323.1-2.9L111.2,654.7l2.9-323l230.4-226.3l323,2.9L894,338.7L891.1,661.7z"/>
	</g>
</g>
<g id="Layer_10" class="st1">
	<g class="st5">
		<path class="st6" d="M314.1,389.2c-10.3,0-18.6,8.3-18.6,18.6v98.3c0,10.3,8.3,18.6,18.6,18.6h98.3c10.3,0,18.6-8.3,18.6-18.6
			v-98.3c0-10.3-8.3-18.6-18.6-18.6L314.1,389.2L314.1,389.2z M393.8,487.5h-61.1v-61.1h61.1V487.5z"/>
		<path class="st6" d="M147.4,412.7c6.9,7.6,19.5,7.4,27.2,0.6c2.5-2.3,4.3-5.1,5.3-8.3l31.7-28.3v217.9c0,10.3,8.3,18.6,18.6,18.6
			h266.2c10.3,0,18.6-8.3,18.6-18.6v-164c0-10.3-8.3-18.6-18.6-18.6s-18.6,8.3-18.6,18.6v145.3h-229V343.4l112.7-100.7l182.7,163.2
			c1.3,3.4,3.5,6.7,6,9c3.4,3,7.3,4.4,11.3,4.4c5.1,0,10.2-2.3,14.1-6.6c1.9-2.1,3.1-4.5,3.8-7c1.4-2.8,2-6,1.9-9.2
			c-0.3-5-2.5-9.6-6.2-12.9l-199.4-178c-2.9-2.6-6.8-3.9-10.8-4c-6-1.8-12.7-0.4-17.5,4l-98.6,88v-69.3c0-10.3-8.3-18.6-18.6-18.6
			s-18.6,8.3-18.6,18.6v102.5l-63.7,56.9c-3.7,3.3-5.9,7.9-6.2,12.9c-0.1,2,0.1,4,0.7,6C143,406.1,144.6,409.7,147.4,412.7z"/>
		<path class="st6" d="M647.2,59.2H75.8c-10.3,0-18.6,8.3-18.6,18.6v852.6c0,10.3,8.3,18.6,18.6,18.6h571.4
			c10.3,0,18.6-8.3,18.6-18.6V77.8C665.8,67.5,657.5,59.2,647.2,59.2z M628.6,911.8H94.4V96.4h534.2L628.6,911.8L628.6,911.8z"/>
		<path class="st6" d="M521.5,714.3h-320c-10.3,0-18.6,8.3-18.6,18.6s8.3,18.6,18.6,18.6h320c10.3,0,18.6-8.3,18.6-18.6
			S531.7,714.3,521.5,714.3z"/>
		<path class="st6" d="M521.5,800.6h-320c-10.3,0-18.6,8.3-18.6,18.6s8.3,18.6,18.6,18.6h320c10.3,0,18.6-8.3,18.6-18.6
			C540.1,808.9,531.7,800.6,521.5,800.6z"/>
		<path class="st6" d="M941.9,225.9c-3.5-3.5-8.2-5.4-13.2-5.4h-52.3v-70c0-10.3-8.3-18.6-18.6-18.6H749.4
			c-10.3,0-18.6,8.3-18.6,18.6v85.4c-0.2,1.1-0.7,2.1-0.7,3.2c0,1.2,0.5,2.2,0.7,3.2v470.8c0,56.9,24.5,88.4,52.4,98.6v46
			c0,10.3,8.3,18.6,18.6,18.6s18.6-8.3,18.6-18.6V813c29.3-8.7,56-40.6,56-99.9V257.7h33.7l-0.3,191.6c0,10.3,8.3,18.6,18.6,18.6
			l0,0c10.3,0,18.6-8.3,18.6-18.6l0.4-210.2C947.4,234.2,945.4,229.4,941.9,225.9z M839.3,169.1v51.4H768v-51.4H839.3z M839.3,713.1
			c0,86-71.3,86-71.3,0V257.7h71.3V713.1z"/>
	</g>
</g>
<g id="Layer_11" class="st1">
	<path class="st2" d="M942.1,398.3L515.3,85.8c-4.5-3.3-10.1-4.3-15.3-3.4c-5.2-1-10.7,0.1-15.3,3.4L57.9,398.3
		c-4.4,3.3-7.3,8.2-7.8,13.7c-0.2,1.9-0.1,3.9,0.3,5.8c-1.2,5.8,0.3,12,4.5,16.7l63.9,71.8c3.8,4.3,9.1,6.5,14.5,6.5
		c3.9,0,7.8-1.2,11.1-3.5l21.8-15.3v395.9c0,10.7,8.7,19.4,19.4,19.4h98.2c0.7,0,1.2-0.3,1.9-0.4c1.2,0.2,2.3,0.7,3.6,0.7h421.5
		c1.3,0,2.4-0.5,3.6-0.7c0.7,0.1,1.3,0.4,1.9,0.4h98.1c10.7,0,19.4-8.7,19.4-19.4v-396l21.8,15.3c8,5.6,19.1,4.4,25.6-3l63.9-71.8
		c4.2-4.7,5.7-10.9,4.5-16.7c0.4-1.9,0.5-3.8,0.3-5.7C949.3,406.6,946.5,401.6,942.1,398.3z M696.9,750.5H303.1V669h393.8V750.5z
		 M303.1,789.3h393.8v81.5H303.1V789.3z M696.9,630.3H303.1v-78.8h393.8V630.3z M795.1,870.5h-59.4V532.1c0-10.7-8.7-19.4-19.4-19.4
		H283.8c-10.7,0-19.4,8.7-19.4,19.4v338.4h-59.5V466.7L500,259.1l295.1,207.6V870.5z M863.7,467.6L831.6,445
		c-2.8-5.7-8.3-9.5-14.8-10.4L511.1,219.5c-3.3-2.4-7.2-3.5-11.1-3.5s-7.8,1.2-11.1,3.5L183.1,434.7c-6.5,0.9-12,4.7-14.8,10.4
		l-32.1,22.6L93.9,420L498,124.1c1.3,0.2,2.7,0.2,4,0L906.1,420L863.7,467.6z"/>
</g>
<g id="Layer_12" class="st1">
	<g class="st5">
		<path class="st6" d="M938.1,340.9L778.2,84.7c-3.3-5.2-9-8.4-15.2-8.4H237c-6.2,0-11.9,3.2-15.2,8.4L61.9,340.9
			c-3.4,5.5-3.6,12.5-0.5,18.2c3.2,5.7,9.2,9.2,15.7,9.2h46.4v521h-31c-9.9,0-17.9,8-17.9,17.9s8,17.9,17.9,17.9h48.8h0.1h0.1h265.2
			h0.1h0.1H593h0.1h0.1h265.2h0.1h0.1h48.8c9.9,0,17.9-8,17.9-17.9s-8-17.9-17.9-17.9h-31.1v-521h46.4c6.5,0,12.5-3.5,15.7-9.2
			C941.7,353.4,941.5,346.4,938.1,340.9z M575.3,889.3H424.7v-184c0-39.1,33.8-70.9,75.3-70.9s75.3,31.8,75.3,70.9V889.3z
			 M840.7,889.3H611.1v-184c0-58.8-49.8-106.7-111.1-106.7s-111.1,47.8-111.1,106.7v184H159.3v-521h204.9c4.6,0,9-1.7,12.3-4.9
			l123.5-117l123.5,117c3.3,3.2,7.7,4.9,12.3,4.9h204.9L840.7,889.3L840.7,889.3z M642.9,332.5L512.3,208.7
			c-6.9-6.6-17.7-6.6-24.6,0L357.1,332.5H109.4L247,112.1h506.1l137.6,220.4H642.9z"/>
		<path class="st6" d="M311.8,439.4h-76.7c-9.9,0-17.9,8-17.9,17.9v108.5c0,9.9,8,17.9,17.9,17.9h76.7c9.9,0,17.9-8,17.9-17.9V457.3
			C329.7,447.4,321.7,439.4,311.8,439.4z M293.9,547.8H253v-72.7h40.9V547.8z"/>
		<path class="st6" d="M311.8,650.6h-76.7c-9.9,0-17.9,8-17.9,17.9v136.6c0,9.9,8,17.9,17.9,17.9h76.7c9.9,0,17.9-8,17.9-17.9V668.5
			C329.7,658.6,321.7,650.6,311.8,650.6z M293.9,787.2H253V686.4h40.9V787.2z"/>
		<path class="st6" d="M688.2,823h76.7c9.9,0,17.9-8,17.9-17.9V668.5c0-9.9-8-17.9-17.9-17.9h-76.7c-9.9,0-17.9,8-17.9,17.9v136.6
			C670.3,815,678.3,823,688.2,823z M706.1,686.4H747v100.8h-40.9V686.4z"/>
		<path class="st6" d="M688.2,583.6h76.7c9.9,0,17.9-8,17.9-17.9V457.3c0-9.9-8-17.9-17.9-17.9h-76.7c-9.9,0-17.9,8-17.9,17.9v108.5
			C670.3,575.6,678.3,583.6,688.2,583.6z M706.1,475.2H747v72.7h-40.9V475.2z"/>
		<path class="st6" d="M500,346.8c-42.6,0-77.3,34.7-77.3,77.3s34.7,77.3,77.3,77.3s77.3-34.7,77.3-77.3S542.6,346.8,500,346.8z
			 M500,465.7c-22.9,0-41.5-18.6-41.5-41.5s18.6-41.5,41.5-41.5c22.9,0,41.5,18.6,41.5,41.5S522.9,465.7,500,465.7z"/>
	</g>
</g>
<g id="Layer_13" class="st1">
	<g class="st5">
		<path class="st6" d="M923.2,844.5h-69.9V536.1c0-10.7-8.7-19.4-19.4-19.4s-19.4,8.7-19.4,19.4v308.4H392V536.1
			c0-10.7-8.7-19.4-19.4-19.4s-19.4,8.7-19.4,19.4v308.4H182.7V536.1c0-10.7-8.7-19.4-19.4-19.4s-19.4,8.7-19.4,19.4v308.4H74
			c-10.7,0-19.4,8.7-19.4,19.4s8.7,19.4,19.4,19.4h849.1c10.7,0,19.4-8.7,19.4-19.4C942.5,853.1,933.9,844.5,923.2,844.5z"/>
		<path class="st6" d="M167.5,474.2c31.7,0,61.5-13.2,82.8-35.5c21.3,22.4,51.1,35.5,82.8,35.5s61.5-13.2,82.8-35.5
			c21.3,22.4,51.1,35.5,82.7,35.5s61.5-13.2,82.8-35.6c21.3,22.4,51.1,35.6,82.8,35.6s61.5-13.2,82.8-35.5
			c21.3,22.4,51.1,35.5,82.7,35.5c62.9,0,114.2-51.2,114.2-114.1c0-6.9-0.6-13.6-1.8-20.2c-0.3-1.4-0.7-2.9-1.3-4.2l-95-221.5
			c-3.1-7.1-10.1-11.7-17.8-11.7H169.3c-7.7,0-14.7,4.6-17.8,11.7l-95,221.4c-0.6,1.4-1,2.8-1.3,4.2c-1.2,6.5-1.8,13.3-1.8,20.2
			C53.4,423,104.6,474.2,167.5,474.2z M333.1,435.5c-26.5,0-50.9-14.2-64.5-36.8l40.8-257.4h98.7l-13.6,256.6
			c-0.1,1.4,0.4,2.7,0.6,4.1C381.1,422.5,358.2,435.5,333.1,435.5z M498.6,435.5c-27,0-51.8-14.5-65.3-37.9l13.5-256.4h99
			l13.7,258.7c0.1,1,0.5,1.8,0.7,2.7C546.1,422.8,523.4,435.5,498.6,435.5z M664.1,435.5c-27.3,0-52.5-14.8-65.9-38.7
			c0-0.1-0.1-0.1-0.2-0.2l-13.5-255.4h98.7l41.3,260.7c0.1,0.5,0.4,1,0.5,1.5C711,423.1,688.7,435.5,664.1,435.5z M904.3,348.7
			c0.6,3.7,0.8,7.5,0.8,11.3c0,41.6-33.8,75.4-75.4,75.4c-27.3,0-52.5-14.8-65.9-38.7c-0.2-0.4-0.7-0.6-1-1l-40.4-254.6h92.8
			L904.3,348.7z M93,348.7l89.1-207.6h88.1l-40.4,254.6c-0.3,1.9,0,3.7,0.2,5.5c-13.9,21-37.1,34.1-62.5,34.1
			c-41.6,0-75.4-33.8-75.4-75.4C92.1,356.2,92.4,352.4,93,348.7z"/>
		<path class="st6" d="M283.7,642.3v61.9c0,10.7,8.7,19.4,19.4,19.4s19.4-8.7,19.4-19.4v-61.9c0-10.7-8.7-19.4-19.4-19.4
			S283.7,631.6,283.7,642.3z"/>
		<path class="st6" d="M750.7,540.3c-7.6-7.5-19.9-7.4-27.4,0.2L531.8,734.6c-7.5,7.6-7.4,19.9,0.2,27.4c3.8,3.7,8.7,5.6,13.6,5.6
			c5,0,10-1.9,13.8-5.8l191.5-194.1C758.4,560.1,758.3,547.8,750.7,540.3z"/>
		<path class="st6" d="M613.2,821.1c5,0,10-1.9,13.8-5.8L756.5,684c7.5-7.6,7.4-19.9-0.2-27.4s-19.9-7.4-27.4,0.2L599.4,788.1
			c-7.5,7.6-7.4,19.9,0.2,27.4C603.4,819.2,608.3,821.1,613.2,821.1z"/>
	</g>
</g>
</svg>
